<svg width="548" height="410" viewBox="0 0 548 410" fill="none" xmlns="http://www.w3.org/2000/svg">
<path d="M242.585 114.507C224.531 49.0128 143.172 27.9146 96.546 76.8629C95.8766 77.5656 95.2073 78.2803 94.5391 79.0069C27.6938 151.67 59.2725 330.735 198.777 376.121C338.282 421.507 483.386 338.628 491.538 264.542C499.689 190.454 435.329 167.175 335.448 187.892C279.018 199.596 253.825 155.279 242.585 114.507Z" fill="url(#paint0_linear_20_650)"/>
<path d="M67.1625 269.374C55.8551 254.216 38.7969 257.256 35.0373 275.455C33.7953 281.47 34.0757 288.993 37.1205 298.331C48.719 333.91 72.2488 343.755 84.2099 320.856C91.5931 306.721 78.3684 284.395 67.1625 269.374Z" fill="url(#paint1_linear_20_650)"/>
<path d="M498.736 271.01C498.049 284.525 510.215 292.343 521.83 285.559C525.67 283.317 529.328 279.513 532.192 273.322C543.106 249.737 533.479 232.141 514.362 236.738C502.565 239.574 499.417 257.614 498.736 271.01Z" fill="url(#paint2_linear_20_650)"/>
<path d="M44.9976 158.561C43.0205 167.51 33.6735 170.431 27.3082 163.917C25.2047 161.764 23.4973 158.625 22.7385 154.068C19.8451 136.71 29.2888 126.949 40.9445 133.38C48.1379 137.35 46.9567 149.693 44.9976 158.561Z" fill="url(#paint3_linear_20_650)"/>
<path d="M362.047 50.4481C362.047 51.9264 361.445 53.2735 360.464 54.2494C359.495 55.2314 358.147 55.8327 356.669 55.8327H241.561C238.605 55.8327 236.183 53.4107 236.183 50.4481C236.183 48.9698 236.785 47.6228 237.766 46.648C238.735 45.666 240.083 45.0635 241.561 45.0635H247.002C249.151 40.0702 254.113 36.5803 259.889 36.5803C263.776 36.5803 267.292 38.1636 269.839 40.7169C273.229 34.966 279.484 31.1026 286.645 31.1026C288.614 31.1026 290.508 31.4009 292.297 31.9414C296.042 24.8984 303.446 20.1031 311.979 20.1031C322.227 20.1031 330.847 27.0221 333.449 36.4371C335.337 35.4934 337.468 34.9529 339.728 34.9529C346.118 34.9529 351.51 39.2195 353.205 45.0635H356.671C359.625 45.0635 362.047 47.4868 362.047 50.4481Z" fill="url(#paint4_linear_20_650)"/>
<path d="M430.796 145.419C430.796 146.806 430.23 148.07 429.311 148.985C428.401 149.907 427.137 150.471 425.75 150.471H317.744C314.97 150.471 312.697 148.198 312.697 145.418C312.697 144.03 313.263 142.767 314.184 141.852C315.093 140.931 316.358 140.365 317.744 140.365H322.85C324.866 135.68 329.522 132.406 334.942 132.406C338.589 132.406 341.888 133.891 344.277 136.287C347.459 130.89 353.327 127.266 360.046 127.266C361.893 127.266 363.67 127.545 365.349 128.052C368.863 121.444 375.809 116.945 383.816 116.945C393.432 116.945 401.52 123.437 403.962 132.272C405.734 131.387 407.733 130.88 409.854 130.88C415.851 130.88 420.909 134.883 422.5 140.366H425.751C428.523 140.366 430.796 142.639 430.796 145.419Z" fill="url(#paint5_linear_20_650)"/>
<path d="M457.646 63.4234C453.461 63.4234 450.056 60.0182 450.056 55.8327C450.056 51.6471 453.461 48.2419 457.646 48.2419C461.832 48.2419 465.237 51.6471 465.237 55.8327C465.237 60.0182 461.831 63.4234 457.646 63.4234ZM457.646 50.6234C454.773 50.6234 452.437 52.9596 452.437 55.8327C452.437 58.7045 454.775 61.0419 457.646 61.0419C460.518 61.0419 462.856 58.7045 462.856 55.8327C462.854 52.9608 460.518 50.6234 457.646 50.6234Z" fill="#124E31"/>
<path d="M484.972 90.0541C480.786 90.0541 477.381 86.6489 477.381 82.4634C477.381 78.2779 480.786 74.8727 484.972 74.8727C489.157 74.8727 492.562 78.2779 492.562 82.4634C492.562 86.6489 489.157 90.0541 484.972 90.0541ZM484.972 77.2542C482.1 77.2542 479.762 79.5915 479.762 82.4634C479.762 85.3353 482.1 87.6726 484.972 87.6726C487.843 87.6726 490.181 85.3353 490.181 82.4634C490.181 79.5903 487.843 77.2542 484.972 77.2542Z" fill="#E2F14D"/>
<path d="M494.349 114.72C493.692 114.72 493.158 114.186 493.158 113.529V108.278C493.158 107.621 493.692 107.087 494.349 107.087C495.006 107.087 495.54 107.621 495.54 108.278V113.529C495.54 114.186 495.006 114.72 494.349 114.72Z" fill="#124E31"/>
<path d="M494.349 123.909C493.692 123.909 493.158 123.376 493.158 122.718V117.467C493.158 116.81 493.692 116.277 494.349 116.277C495.006 116.277 495.54 116.81 495.54 117.467V122.718C495.54 123.376 495.006 123.909 494.349 123.909Z" fill="#124E31"/>
<path d="M501.72 116.69H497.003C496.346 116.69 495.812 116.156 495.812 115.499C495.812 114.841 496.346 114.308 497.003 114.308H501.72C502.377 114.308 502.91 114.841 502.91 115.499C502.909 116.156 502.377 116.69 501.72 116.69Z" fill="#124E31"/>
<path d="M491.695 116.69H486.979C486.321 116.69 485.788 116.156 485.788 115.499C485.788 114.841 486.321 114.308 486.979 114.308H491.695C492.353 114.308 492.886 114.841 492.886 115.499C492.886 116.156 492.353 116.69 491.695 116.69Z" fill="#124E31"/>
<path d="M452.436 85.2972C451.778 85.2972 451.245 84.7638 451.245 84.1064V78.8554C451.245 78.198 451.778 77.6647 452.436 77.6647C453.093 77.6647 453.627 78.198 453.627 78.8554V84.1064C453.627 84.7638 453.093 85.2972 452.436 85.2972Z" fill="url(#paint6_linear_20_650)"/>
<path d="M452.436 94.4866C451.778 94.4866 451.245 93.9533 451.245 93.2959V88.0449C451.245 87.3875 451.778 86.8541 452.436 86.8541C453.093 86.8541 453.627 87.3875 453.627 88.0449V93.2959C453.627 93.9533 453.093 94.4866 452.436 94.4866Z" fill="url(#paint7_linear_20_650)"/>
<path d="M459.807 87.267H455.09C454.433 87.267 453.899 86.7337 453.899 86.0762C453.899 85.4188 454.433 84.8855 455.09 84.8855H459.807C460.464 84.8855 460.997 85.4188 460.997 86.0762C460.997 86.7337 460.464 87.267 459.807 87.267Z" fill="url(#paint8_linear_20_650)"/>
<path d="M449.783 87.267H445.067C444.409 87.267 443.876 86.7337 443.876 86.0762C443.876 85.4188 444.409 84.8855 445.067 84.8855H449.783C450.441 84.8855 450.974 85.4188 450.974 86.0762C450.973 86.7337 450.441 87.267 449.783 87.267Z" fill="url(#paint9_linear_20_650)"/>
<path d="M94.8594 45.9702C94.8594 41.7847 98.2646 38.3795 102.45 38.3795C106.636 38.3795 110.041 41.7847 110.041 45.9702C110.041 50.1557 106.636 53.561 102.45 53.561C98.2646 53.561 94.8594 50.1557 94.8594 45.9702ZM97.2409 45.9702C97.2409 48.8433 99.5782 51.1795 102.45 51.1795C105.322 51.1795 107.659 48.8421 107.659 45.9702C107.659 43.0984 105.322 40.761 102.45 40.761C99.577 40.761 97.2409 43.0972 97.2409 45.9702Z" fill="#124E31"/>
<path d="M64.377 74.9025C64.377 70.717 67.7822 67.3118 71.9677 67.3118C76.1532 67.3118 79.5584 70.717 79.5584 74.9025C79.5584 79.088 76.1532 82.4932 71.9677 82.4932C67.7822 82.4932 64.377 79.088 64.377 74.9025ZM66.7585 74.9025C66.7585 77.7755 69.0958 80.1117 71.9677 80.1117C74.8395 80.1117 77.1769 77.7755 77.1769 74.9025C77.1769 72.0294 74.8407 69.6933 71.9677 69.6933C69.0946 69.6933 66.7585 72.0306 66.7585 74.9025Z" fill="#E2F14D"/>
<path d="M48.595 85.5548C49.2525 85.5548 49.7858 85.0215 49.7858 84.3641V79.1131C49.7858 78.4557 49.2525 77.9224 48.595 77.9224C47.9376 77.9224 47.4043 78.4557 47.4043 79.1131V84.3641C47.4043 85.0215 47.9376 85.5548 48.595 85.5548Z" fill="#124E31"/>
<path d="M48.595 94.7443C49.2525 94.7443 49.7858 94.211 49.7858 93.5535V88.3026C49.7858 87.6451 49.2525 87.1118 48.595 87.1118C47.9376 87.1118 47.4043 87.6451 47.4043 88.3026V93.5535C47.4043 94.211 47.9376 94.7443 48.595 94.7443Z" fill="#124E31"/>
<path d="M41.2249 87.5235H45.9414C46.5988 87.5235 47.1321 86.9901 47.1321 86.3327C47.1321 85.6753 46.5988 85.142 45.9414 85.142H41.2249C40.5675 85.142 40.0342 85.6753 40.0342 86.3327C40.0342 86.9913 40.5675 87.5235 41.2249 87.5235Z" fill="#124E31"/>
<path d="M51.2484 87.5235H55.9648C56.6222 87.5235 57.1556 86.9901 57.1556 86.3327C57.1556 85.6753 56.6222 85.142 55.9648 85.142H51.2484C50.5909 85.142 50.0576 85.6753 50.0576 86.3327C50.0576 86.9913 50.5909 87.5235 51.2484 87.5235Z" fill="#124E31"/>
<path d="M76.0316 45.1923C76.689 45.1923 77.2223 44.659 77.2223 44.0015V38.7506C77.2223 38.0931 76.689 37.5598 76.0316 37.5598C75.3742 37.5598 74.8408 38.0931 74.8408 38.7506V44.0015C74.8408 44.659 75.3742 45.1923 76.0316 45.1923Z" fill="url(#paint10_linear_20_650)"/>
<path d="M76.0316 54.3806C76.689 54.3806 77.2223 53.8473 77.2223 53.1899V47.9389C77.2223 47.2815 76.689 46.7482 76.0316 46.7482C75.3742 46.7482 74.8408 47.2815 74.8408 47.9389V53.1899C74.8408 53.8473 75.3742 54.3806 76.0316 54.3806Z" fill="url(#paint11_linear_20_650)"/>
<path d="M68.6615 47.1609H73.3779C74.0353 47.1609 74.5687 46.6276 74.5687 45.9702C74.5687 45.3128 74.0353 44.7794 73.3779 44.7794H68.6615C68.004 44.7794 67.4707 45.3128 67.4707 45.9702C67.4707 46.6276 68.004 47.1609 68.6615 47.1609Z" fill="url(#paint12_linear_20_650)"/>
<path d="M78.6849 47.1609H83.4013C84.0588 47.1609 84.5921 46.6276 84.5921 45.9702C84.5921 45.3128 84.0588 44.7794 83.4013 44.7794H78.6849C78.0275 44.7794 77.4941 45.3128 77.4941 45.9702C77.4941 46.6276 78.0275 47.1609 78.6849 47.1609Z" fill="url(#paint13_linear_20_650)"/>
<path d="M374.397 73.664V95.6308C374.397 98.5349 372.041 100.89 369.138 100.89H329.252L317.211 105.21C315.975 105.654 314.791 104.438 315.265 103.217L319.821 91.4536V73.664C319.821 70.7599 322.177 68.4047 325.082 68.4047H369.139C372.042 68.4035 374.397 70.7599 374.397 73.664Z" fill="#E2F14D"/>
<g opacity="0.5">
<path d="M365.989 79.879H329.398C328.596 79.879 327.947 79.2287 327.947 78.4281C327.947 77.6264 328.598 76.9773 329.398 76.9773H365.989C366.791 76.9773 367.44 77.6276 367.44 78.4281C367.441 79.2287 366.791 79.879 365.989 79.879Z" fill="#FBB040"/>
<path d="M365.989 85.7242H329.398C328.596 85.7242 327.947 85.0739 327.947 84.2721C327.947 83.4704 328.598 82.8213 329.398 82.8213H365.989C366.791 82.8213 367.44 83.4716 367.44 84.2721C367.441 85.0739 366.791 85.7242 365.989 85.7242Z" fill="#FBB040"/>
<path d="M365.989 91.5693H329.398C328.596 91.5693 327.947 90.919 327.947 90.1184C327.947 89.3167 328.598 88.6664 329.398 88.6664H365.989C366.791 88.6664 367.44 89.3167 367.44 90.1184C367.441 90.919 366.791 91.5693 365.989 91.5693Z" fill="#FBB040"/>
</g>
<path d="M222.193 18.9935C222.322 19.0257 222.459 19.0269 222.596 18.9911C224.05 18.6105 224.893 18.4554 224.901 18.4542C225.341 18.3743 225.634 17.9531 225.554 17.5128C225.474 17.0726 225.053 16.7803 224.612 16.859C224.577 16.8662 223.708 17.0237 222.184 17.4234C221.751 17.5367 221.492 17.9794 221.606 18.4125C221.686 18.7084 221.916 18.9231 222.193 18.9935Z" fill="url(#paint14_linear_20_650)"/>
<path d="M175.116 56.1335C174.361 57.5104 173.634 58.9373 172.954 60.3763C172.786 60.733 172.391 60.9096 172.022 60.8165C171.972 60.8034 171.923 60.7867 171.874 60.764C171.47 60.5731 171.297 60.0899 171.488 59.6854C172.181 58.2179 172.923 56.7611 173.694 55.3556C173.909 54.963 174.399 54.8198 174.794 55.0346C175.188 55.2482 175.331 55.7409 175.116 56.1335Z" fill="url(#paint15_linear_20_650)"/>
<path d="M171.05 64.7407C170.466 66.1951 169.91 67.6984 169.399 69.2101C169.263 69.6134 168.839 69.8389 168.432 69.7363C168.412 69.7315 168.392 69.7256 168.37 69.7184C167.947 69.5752 167.719 69.1147 167.862 68.6911C168.384 67.1508 168.949 65.6188 169.546 64.1369C169.713 63.7217 170.185 63.5201 170.6 63.6871C171.017 63.8542 171.217 64.3254 171.05 64.7407Z" fill="url(#paint16_linear_20_650)"/>
<path d="M164.179 88.4781C163.787 88.3791 163.522 88.0009 163.575 87.5892C163.783 85.9761 164.026 84.363 164.3 82.794C164.378 82.3526 164.798 82.0579 165.238 82.1354C165.684 82.2154 165.974 82.633 165.897 83.0732C165.626 84.6184 165.386 86.2064 165.182 87.7957C165.125 88.2395 164.719 88.5533 164.275 88.496C164.243 88.4925 164.211 88.4865 164.179 88.4781Z" fill="url(#paint17_linear_20_650)"/>
<path d="M167.434 72.7657C167.864 72.8862 168.117 73.3336 167.996 73.7644C167.798 74.4755 167.606 75.1961 167.427 75.9048C167.219 76.7233 167.02 77.5597 166.832 78.3913C166.735 78.828 166.3 79.1024 165.864 79.0046C165.856 79.0034 165.849 79.001 165.842 78.9998C165.417 78.8925 165.155 78.4665 165.251 78.037C165.441 77.191 165.645 76.3403 165.856 75.5087C166.039 74.7869 166.233 74.0543 166.436 73.3301C166.554 72.9053 166.99 72.6547 167.416 72.7621C167.421 72.7633 167.428 72.7645 167.434 72.7657Z" fill="url(#paint18_linear_20_650)"/>
<path d="M177.534 52.0327C177.342 52.3369 176.98 52.4694 176.65 52.3858C176.568 52.3656 176.49 52.3321 176.416 52.2856C176.037 52.047 175.924 51.5459 176.164 51.1676C177.028 49.8003 177.945 48.4461 178.89 47.142C179.153 46.7793 179.659 46.6982 180.023 46.9618C180.384 47.2243 180.465 47.7314 180.203 48.0929C179.277 49.3684 178.38 50.694 177.534 52.0327Z" fill="url(#paint19_linear_20_650)"/>
<path d="M218.048 20.3716C216.57 20.8775 215.069 21.4431 213.589 22.0552C213.42 22.1244 213.244 22.1339 213.08 22.0921C212.84 22.0313 212.632 21.8619 212.53 21.6161C212.36 21.2021 212.556 20.7284 212.969 20.5578C214.481 19.9338 216.013 19.3551 217.523 18.8397C217.947 18.6953 218.408 18.922 218.552 19.3444C218.698 19.7655 218.472 20.2261 218.048 20.3716Z" fill="url(#paint20_linear_20_650)"/>
<path d="M205.006 26.2037C204.818 26.3087 204.605 26.3302 204.412 26.2813C204.203 26.2288 204.016 26.0927 203.904 25.8911C203.686 25.4998 203.825 25.007 204.217 24.7887C205.627 24.0024 207.078 23.2471 208.531 22.5444C208.934 22.3499 209.417 22.5181 209.613 22.9214C209.808 23.3247 209.639 23.8091 209.236 24.0036C207.811 24.692 206.389 25.4329 205.006 26.2037Z" fill="url(#paint21_linear_20_650)"/>
<path d="M189.637 37.3965C189.428 37.5921 189.142 37.6566 188.883 37.5909C188.737 37.554 188.601 37.4764 188.492 37.3595C188.186 37.0326 188.202 36.5195 188.529 36.2141C189.705 35.1128 190.933 34.0318 192.181 33.0022C192.526 32.717 193.036 32.7659 193.323 33.1107C193.608 33.4556 193.559 33.9662 193.214 34.2514C191.992 35.2596 190.788 36.3179 189.637 37.3965Z" fill="url(#paint22_linear_20_650)"/>
<path d="M196.978 31.3342C196.775 31.4809 196.527 31.5215 196.301 31.4642C196.123 31.4189 195.961 31.3151 195.845 31.1552C195.583 30.7937 195.662 30.2866 196.024 30.0229C197.325 29.0767 198.677 28.1556 200.043 27.2835C200.42 27.0425 200.921 27.1534 201.162 27.5304C201.403 27.9075 201.292 28.4086 200.915 28.6496C199.576 29.5039 198.252 30.4071 196.978 31.3342Z" fill="url(#paint23_linear_20_650)"/>
<path d="M183.116 44.3285C182.909 44.5779 182.586 44.6722 182.293 44.5982C182.179 44.5695 182.071 44.5159 181.975 44.4371C181.63 44.152 181.583 43.6413 181.868 43.2965C182.896 42.052 183.98 40.8255 185.086 39.6491C185.392 39.3233 185.904 39.3066 186.231 39.6145C186.557 39.9211 186.573 40.4342 186.267 40.7599C185.183 41.9101 184.124 43.1115 183.116 44.3285Z" fill="url(#paint24_linear_20_650)"/>
<path d="M222.999 13.5075L221.359 0L264.321 6.56343L222.999 13.5075Z" fill="#E2F14D"/>
<path d="M264.322 6.56226L224.635 16.9461L224.53 16.9759L222.536 19.4099L222.999 13.5075L264.322 6.56226Z" fill="#FBB040"/>
<path d="M222.536 19.4099L226.102 19.3622L224.53 16.976L222.536 19.4099Z" fill="#B2304F"/>
<path d="M229.523 15.6683L224.528 16.9748L232.652 29.2962L264.321 6.56348L229.523 15.6683Z" fill="#E2F14D"/>
<path d="M131.816 398.934C116.61 383.483 85.5001 349.409 65.7168 310.852C36.6019 254.103 7.40474 259.175 1.67651 279.236C-11.2869 324.633 53.9071 373.478 94.649 398.934H131.816Z" fill="#124E31"/>
<path d="M119.706 398.934C96.6031 380.802 77.0739 360.201 63.5008 344.384C43.9824 321.639 32.224 303.609 32.1059 303.427C31.6859 302.78 30.8173 302.595 30.1695 303.019C29.5192 303.438 29.3343 304.305 29.7578 304.954C29.8724 305.136 41.7142 323.293 61.3437 346.173C74.4634 361.468 93.1192 381.207 115.199 398.935H119.706V398.934Z" fill="url(#paint25_linear_20_650)"/>
<path d="M129.302 380.112C122.473 366.484 109.525 337.934 104.724 308.843C97.5511 265.374 77.2786 262.549 69.2786 274.534C47.3035 307.45 99.9672 367.999 116.765 385.923L129.302 380.112Z" fill="url(#paint26_linear_20_650)"/>
<path d="M124.53 382.324C111.706 364.326 102.244 344.795 96.1912 330.428C88.1542 311.349 84.2253 297.01 84.1871 296.865C84.0475 296.351 83.5153 296.046 82.9999 296.188C82.4833 296.327 82.179 296.858 82.321 297.374C82.358 297.517 86.3144 311.958 94.3955 331.149C100.455 345.542 109.918 365.085 122.747 383.151L124.53 382.324Z" fill="#124E31"/>
<path d="M428.554 259.497C441.574 244.237 469.846 208.637 486.392 169.392C510.137 113.069 538.401 115.817 545.317 134.576C563.205 183.091 483.864 243.248 450.782 265.753L428.554 259.497Z" fill="#124E31"/>
<path d="M436.377 261.698C459.287 241.664 478.194 218.58 490.919 201.276C507.936 178.137 517.876 160.064 517.977 159.88C518.331 159.232 519.148 158.992 519.797 159.351C520.449 159.705 520.687 160.521 520.329 161.171C520.233 161.352 510.222 179.555 493.109 202.83C480.54 219.929 461.968 242.637 439.454 262.565L436.377 261.698Z" fill="url(#paint27_linear_20_650)"/>
<path d="M430.606 240.149C436.152 226.636 446.473 198.422 448.97 170.276C452.7 128.221 471.87 124.063 480.377 134.942C503.743 164.817 457.768 226.465 443.004 244.801L430.606 240.149Z" fill="url(#paint28_linear_20_650)"/>
<path d="M435.326 241.92C446.289 223.798 453.927 204.455 458.677 190.291C464.986 171.482 467.709 157.496 467.736 157.354C467.833 156.853 468.32 156.524 468.822 156.621C469.326 156.716 469.655 157.203 469.556 157.706C469.531 157.846 466.788 171.929 460.445 190.85C455.688 205.04 448.05 224.395 437.09 242.582L435.326 241.92Z" fill="#124E31"/>
<path d="M508.778 303.812C512.853 282.223 520.689 262.532 529.595 270.658C538.509 278.79 524.382 312.418 503.307 331.054L497.654 339.108C512.775 325.259 537.105 317 543.709 324.821C550.271 332.593 533.578 336.62 517.716 337.756C505.643 338.62 497.936 341.953 494.198 344.03L467.497 382.068C491.507 360.205 529.921 347.209 540.371 359.585C550.784 371.919 524.295 378.308 499.128 380.11C480.11 381.471 467.914 386.695 461.934 389.995L456.61 397.579C455.149 396.862 453.694 396.137 452.244 395.403L484.01 350.149C484.195 345.498 483.766 338.923 481.451 330.729C477.128 315.426 475.243 298.357 484.783 301.888C493.062 304.952 494.575 324.476 489.778 341.933L500.763 326.283C503.333 320.862 507.02 313.131 508.778 303.812Z" fill="#124E31"/>
<path d="M88.1067 131.174C85.9531 113.299 80.6198 96.7702 72.8943 102.928C65.1616 109.092 74.8772 137.361 91.0943 153.748L95.2774 160.642C83.6683 148.493 64.2249 140.413 58.3977 146.448C52.6074 152.445 66.0385 156.649 78.9458 158.442C88.7713 159.808 94.8909 162.953 97.8343 164.856L117.591 197.417C99.1515 178.23 68.4498 165.507 59.2293 175.057C50.0422 184.573 71.3527 191.244 91.8341 194.089C107.311 196.241 117 201.178 121.709 204.202L125.649 210.694C126.881 210.187 128.111 209.674 129.338 209.153L105.832 170.415C105.935 166.602 106.644 161.248 108.984 154.675C113.353 142.398 115.827 128.543 107.834 130.911C100.897 132.964 98.5944 148.847 101.565 163.383L93.4364 149.986C91.63 145.414 89.0374 138.89 88.1067 131.174Z" fill="#124E31"/>
<path d="M268.16 391.954C268.369 388.482 268.566 385.178 268.747 382.116C269.484 369.594 269.957 361.047 269.957 361.047L265.054 360.828L262.289 360.702L228.949 359.222C228.949 359.222 228.342 368.781 227.627 382.818C227.481 385.691 227.33 388.752 227.179 391.955H268.16V391.954Z" fill="#124E31"/>
<path d="M265.052 360.828L269.956 361.047C269.956 361.047 269.482 369.595 268.746 382.115C255.937 383.183 241.951 383.618 227.625 382.817C228.34 368.78 228.947 359.22 228.947 359.22L262.287 360.701L265.052 360.828Z" fill="#124E31"/>
<path d="M263.302 391.954C264.075 378.578 264.71 367.12 265.054 360.827L262.29 360.703C261.944 367.023 261.307 378.534 260.531 391.954H263.302Z" fill="#124E31"/>
<path d="M278.906 391.954H319.889C319.738 388.75 319.586 385.689 319.441 382.817C318.726 368.78 318.119 359.22 318.119 359.22L284.778 360.701L282.013 360.826L277.109 361.046C277.109 361.046 277.583 369.593 278.319 382.114C278.499 385.178 278.696 388.483 278.906 391.954Z" fill="#124E31"/>
<path d="M282.013 360.828L277.109 361.047C277.109 361.047 277.583 369.595 278.319 382.115C291.129 383.183 305.115 383.618 319.441 382.817C318.726 368.78 318.119 359.22 318.119 359.22L284.778 360.701L282.013 360.828Z" fill="#124E31"/>
<path d="M286.535 391.954C285.759 378.534 285.122 367.023 284.776 360.703L282.012 360.827C282.357 367.119 282.991 378.578 283.764 391.954H286.535Z" fill="#124E31"/>
<path d="M322.853 354.592C322.853 358.531 322.844 361.654 322.817 363.763C313.488 366.274 304.164 368.096 294.841 369.21C294.594 369.24 294.343 369.271 294.094 369.301C293.679 369.349 293.266 369.4 292.857 369.445C292.752 369.455 292.649 369.467 292.544 369.475C290.924 369.649 289.316 369.807 287.695 369.942C284.334 370.219 279.446 370.457 276.085 370.55L273.478 355.023L270.87 370.55C268.943 370.52 265.573 370.46 263.645 370.372C262.938 370.337 262.239 370.303 261.537 370.258C260.911 370.228 260.272 370.185 259.642 370.141C259.356 370.126 259.07 370.108 258.784 370.087C258.249 370.048 257.721 370.009 257.186 369.967C245.401 369.015 233.626 366.952 221.849 363.763C221.789 359.121 221.728 349.674 221.713 337.48C221.713 336.812 221.71 336.134 221.713 335.447C221.697 322 221.748 305.501 221.908 288.506C221.924 287.162 221.938 285.816 221.954 284.467C221.969 282.647 221.989 280.817 222.014 278.98C222.02 278.61 222.024 278.242 222.03 277.871C222.036 277.134 222.045 276.393 222.06 275.654C222.075 274.579 222.09 273.507 222.105 272.438C222.141 270.001 222.174 267.569 222.216 265.15C222.783 231.415 223.921 200.408 226.093 192.518C226.294 191.793 226.505 191.259 226.719 190.943C226.95 190.594 227.237 190.236 227.557 189.872C227.96 189.411 228.43 188.937 228.957 188.457C232.568 185.131 238.838 181.272 245.192 177.603C245.93 177.178 246.677 176.751 247.415 176.328C247.526 176.268 264.683 170.48 264.794 170.414L282.74 171.67C284.896 172.939 301.876 178.709 303.956 180.007C304.573 180.392 305.182 180.778 305.778 181.161C310.663 184.31 314.81 187.434 316.623 190.092C319.233 193.936 320.814 228.379 321.727 265.85C321.751 266.712 321.772 267.576 321.794 268.437C321.887 272.401 321.974 276.388 322.053 280.368C322.134 284.302 322.203 288.229 322.27 292.123C322.375 298.498 322.466 304.778 322.541 310.822C322.55 311.509 322.556 312.189 322.565 312.873C322.637 318.767 322.691 324.419 322.736 329.695C322.742 330.387 322.746 331.068 322.752 331.746C322.812 339.672 322.849 346.683 322.851 352.314V352.32C322.853 353.108 322.853 353.861 322.853 354.592Z" fill="#124E31"/>
<path d="M274.376 197.44L284.817 285.554L273.518 307.362L261.921 285.554L272.984 197.466L274.376 197.44Z" fill="#EDEDED"/>
<path d="M280.849 193.932L273.59 205.581L266.102 194.035L273.475 179.948L280.849 193.932Z" fill="white"/>
<path d="M263.168 169.004C263.168 169.004 256.713 168.935 254.526 174.141C254.526 174.141 253.865 190.109 266.103 194.035L273.476 179.948C273.476 179.948 264.287 177.114 263.168 169.004Z" fill="url(#paint29_linear_20_650)"/>
<path d="M283.113 169.004C283.113 169.004 288.646 169.813 290.833 175.021C290.833 175.021 293.074 190.109 280.835 194.035L273.476 179.948C273.476 179.948 281.992 177.114 283.113 169.004Z" fill="url(#paint30_linear_20_650)"/>
<path d="M276.084 316.444C276.084 317.884 274.915 319.052 273.475 319.052C272.035 319.052 270.867 317.884 270.867 316.444C270.867 315.004 272.035 313.836 273.475 313.836C274.915 313.836 276.084 315.003 276.084 316.444Z" fill="url(#paint31_linear_20_650)"/>
<path d="M276.084 337.228C276.084 338.669 274.915 339.837 273.475 339.837C272.035 339.837 270.867 338.669 270.867 337.228C270.867 335.788 272.035 334.62 273.475 334.62C274.915 334.621 276.084 335.788 276.084 337.228Z" fill="url(#paint32_linear_20_650)"/>
<path d="M297.856 246.52H296.789C290.994 246.52 286.296 241.823 286.296 236.028V222.55H308.35V236.028C308.35 241.822 303.651 246.52 297.856 246.52Z" fill="url(#paint33_linear_20_650)"/>
<path d="M248.773 124.659C248.773 124.659 249.177 115.094 247.889 111.287C245.609 104.553 246.705 99.3797 251.744 97.769C257.511 95.9256 252.769 91.9131 258.332 90.1556C263.896 88.3981 265.248 93.136 268.622 91.3273C271.997 89.5185 273.141 88.2144 276.486 87.7646C281.569 87.0809 281.889 91.9238 285.396 91.2783C291.223 90.2045 294.481 93.9629 295.664 97.769C296.848 101.575 295.946 102.655 298.639 103.772C302.643 105.431 301.91 112.019 299.714 114.801C297.518 117.582 297.879 118.685 297.722 123.087C297.567 127.489 248.773 124.659 248.773 124.659Z" fill="#124E31"/>
<path d="M295.234 133.2C295.234 133.2 299.445 127.585 302.576 132.229C305.708 136.872 301.28 150.585 293.613 147.239L295.234 133.2Z" fill="#E2F14D"/>
<path d="M295.289 142.999C295.572 142.999 295.832 142.812 295.913 142.527C297.101 138.292 301.487 136.577 301.531 136.56C301.865 136.432 302.034 136.059 301.906 135.725C301.779 135.391 301.406 135.223 301.072 135.348C300.867 135.425 296.033 137.301 294.665 142.177C294.568 142.522 294.77 142.879 295.113 142.976C295.172 142.991 295.23 142.999 295.289 142.999Z" fill="#124E31"/>
<path d="M299.715 140.867C299.835 140.867 299.957 140.834 300.065 140.764C300.366 140.569 300.453 140.169 300.259 139.867C300.226 139.817 299.451 138.634 297.827 137.907C297.502 137.76 297.117 137.907 296.971 138.234C296.826 138.561 296.971 138.944 297.298 139.09C298.554 139.652 299.163 140.56 299.169 140.569C299.293 140.762 299.502 140.867 299.715 140.867Z" fill="#124E31"/>
<path d="M251.835 133.2C251.835 133.2 247.624 127.585 244.492 132.229C241.36 136.872 245.788 150.585 253.455 147.239L251.835 133.2Z" fill="#E2F14D"/>
<path d="M251.78 142.999C251.497 142.999 251.237 142.812 251.156 142.527C249.967 138.292 245.581 136.577 245.537 136.56C245.203 136.432 245.035 136.059 245.161 135.725C245.288 135.391 245.662 135.223 245.995 135.348C246.2 135.425 251.034 137.301 252.402 142.177C252.499 142.522 252.299 142.879 251.954 142.976C251.896 142.991 251.838 142.999 251.78 142.999Z" fill="#124E31"/>
<path d="M247.352 140.867C247.231 140.867 247.111 140.834 247.001 140.764C246.7 140.569 246.613 140.169 246.808 139.867C246.84 139.817 247.616 138.634 249.239 137.907C249.565 137.76 249.949 137.907 250.095 138.234C250.242 138.561 250.095 138.944 249.768 139.09C248.513 139.652 247.902 140.56 247.897 140.569C247.774 140.762 247.565 140.867 247.352 140.867Z" fill="#124E31"/>
<path d="M263.168 158.869V172.507C263.168 172.507 267.235 179.452 272.736 179.926C278.23 180.405 283.114 173.946 283.114 173.946V159.829L263.168 158.869Z" fill="#FDBEAB"/>
<path d="M263.168 158.869V164.921C266.858 169.016 273.413 170.04 283.112 168.608V159.829L263.168 158.869Z" fill="#E2F14D"/>
<path d="M248.792 123.847C249.041 129.147 249.546 135.776 250.559 141.071V141.087C250.559 141.102 250.564 141.118 250.57 141.138C250.57 141.143 250.575 141.143 250.575 141.149C250.824 142.442 251.104 143.659 251.41 144.753C251.594 145.395 251.792 146.067 252.016 146.754C255.249 156.896 262.737 171.574 281.56 164.859C289.487 162.034 293.617 153.846 295.719 144.967C295.841 144.437 295.959 143.913 296.06 143.409C296.132 143.072 296.198 142.747 296.259 142.426L296.35 141.952C296.366 141.871 296.375 141.815 296.381 141.779C296.386 141.759 296.386 141.748 296.386 141.748C297.628 134.921 297.817 128.017 297.725 123.084C297.628 118.053 294.879 113.452 290.5 110.972C278.643 104.247 266.124 106.757 257.881 109.923C252.157 112.116 248.496 117.732 248.792 123.847Z" fill="#FDBEAB"/>
<path d="M250.553 141.07C250.553 141.07 250.553 141.075 250.558 141.086C250.558 141.101 250.562 141.117 250.568 141.137C250.568 141.142 250.573 141.142 250.573 141.148C250.695 141.59 251.357 144.018 252.014 146.753C255.248 156.895 262.736 171.573 281.559 164.858C289.486 162.032 293.615 153.845 295.718 144.966C295.839 144.436 295.957 143.912 296.059 143.407C296.13 143.071 296.196 142.745 296.257 142.424L296.349 141.951C296.364 141.87 296.374 141.813 296.38 141.778C296.385 141.757 296.385 141.747 296.385 141.747L293.615 141.187C293.086 143.81 291.915 146.278 290.479 148.472C288.136 142.862 276.254 146.588 276.254 146.588L276.198 146.609C275.475 146.833 274.732 146.95 273.983 146.95C273.215 146.95 272.452 146.828 271.708 146.588C271.708 146.588 259.968 142.699 257.534 148.05C255.1 144.282 253.451 140.866 253.451 140.866L250.559 141.07H250.553ZM273.952 149.13C287.388 147.317 285.275 154.551 285.275 154.551C283.784 155.91 282.419 156.903 281.503 157.417C278.57 159.052 275.684 159.672 273.591 159.571C271.529 159.484 270.964 159.907 265.751 157.087C264.83 156.593 263.898 155.86 262.986 154.989C262.986 154.989 262.986 154.989 262.982 154.989V154.984C262.756 153.569 260.481 146.813 273.952 149.13Z" fill="#124E31"/>
<path d="M261.777 133.709C261.777 135.164 262.528 136.344 263.454 136.344C264.378 136.344 265.129 135.164 265.129 133.709C265.129 132.253 264.378 131.073 263.454 131.073C262.528 131.073 261.777 132.253 261.777 133.709Z" fill="#124E31"/>
<path d="M282.728 133.709C282.728 135.164 283.478 136.344 284.403 136.344C285.329 136.344 286.079 135.164 286.079 133.709C286.079 132.253 285.329 131.073 284.403 131.073C283.477 131.073 282.728 132.253 282.728 133.709Z" fill="#124E31"/>
<path d="M257.486 124.821C257.486 124.821 264.411 122.084 269.743 124.388L269.21 127.353C269.21 127.353 261.384 126.691 257.441 128.288C257.089 127.148 257.037 125.994 257.486 124.821Z" fill="#124E31"/>
<path d="M290.413 124.834C290.413 124.834 283.437 122.077 278.066 124.397L278.603 127.385C278.603 127.385 286.486 126.718 290.458 128.328C290.814 127.179 290.866 126.016 290.413 124.834Z" fill="#124E31"/>
<path d="M273.308 145.49C272.216 145.49 271.131 145.065 270.964 144.996C270.633 144.861 270.475 144.483 270.61 144.151C270.744 143.819 271.123 143.661 271.453 143.795C272.039 144.033 273.443 144.405 274.052 144.041C274.169 143.971 274.33 143.831 274.37 143.437C274.604 141.175 273.985 133.592 273.979 133.515C273.949 133.159 274.215 132.846 274.572 132.816C274.93 132.786 275.241 133.052 275.271 133.409C275.297 133.725 275.907 141.19 275.66 143.571C275.567 144.467 275.097 144.926 274.718 145.153C274.304 145.402 273.805 145.49 273.308 145.49Z" fill="#E2F14D"/>
<path d="M281.569 150.424C281.077 152.899 279.442 157.452 273.935 157.452C268.415 157.452 266.866 153.291 266.335 150.424H281.569Z" fill="white"/>
<path d="M248.79 123.845C249.043 129.145 249.547 135.773 250.559 141.071L253.455 140.866C253.455 140.866 252.753 136.391 252.429 133.476C252.105 130.56 251.554 125.111 254.043 124.431C256.524 123.757 255.068 117.54 258.521 114.845C261.974 112.144 269.698 111.403 274.791 114.538C279.883 117.668 285.622 114.301 287.967 114.845C290.319 115.383 293.507 118.623 292.646 121.648C291.777 124.667 294.369 126.508 294.997 129.636C295.626 132.766 293.617 141.188 293.617 141.188L296.384 141.745C297.628 134.917 297.816 128.016 297.725 123.086C297.628 118.052 294.88 113.451 290.5 110.971C278.637 104.246 266.121 106.753 257.88 109.921C252.158 112.118 248.497 117.735 248.79 123.845Z" fill="#124E31"/>
<path d="M230.425 187.19C230.425 187.19 213.387 198.561 202.436 201.943L209.77 232.675C209.77 232.675 210.782 232.255 223.209 226.975L230.425 187.19Z" fill="#124E31"/>
<path d="M313.972 187.19C313.972 187.19 346.542 203.884 357.494 207.265C353.305 214.82 350.631 221.844 347.064 231.971C347.064 231.971 331.416 227.831 318.988 222.55L313.972 187.19Z" fill="#124E31"/>
<path d="M446.313 392.159C445.711 380.756 445.237 373.308 445.237 373.308L411.808 374.793L409.036 374.918L404.119 375.138C404.119 375.138 404.493 381.879 405.092 392.159H446.313Z" fill="#375BC7"/>
<path d="M446.313 392.159C445.711 380.756 445.237 373.308 445.237 373.308L411.808 374.793L409.036 374.918L404.119 375.138C404.119 375.138 404.493 381.879 405.092 392.159H446.313Z" fill="#124E31"/>
<path d="M412.772 392.159C412.359 384.852 412.025 378.789 411.807 374.794L409.035 374.919C409.252 378.887 409.585 384.904 409.994 392.159H412.772Z" fill="#124E31"/>
<path d="M394.57 392.159C395.173 381.878 395.544 375.138 395.544 375.138L390.209 374.9L387.441 374.775L354.422 373.308C354.422 373.308 354.059 379.019 353.563 388.099C353.492 389.385 353.42 390.744 353.346 392.159H394.57Z" fill="#124E31"/>
<path d="M389.248 392.159C389.659 384.893 389.99 378.869 390.206 374.9L387.438 374.775C387.22 378.77 386.885 384.84 386.472 392.158H389.248V392.159Z" fill="#124E31"/>
<path d="M373.707 129.98C373.707 145.047 382.982 155.428 398.043 155.428C413.11 155.428 423.613 144.267 423.613 129.2C423.613 125.044 422.936 121.164 421.632 117.731C421.555 117.527 421.478 117.322 421.395 117.124C421.235 116.734 421.07 116.344 420.891 115.967C420.628 115.384 420.335 114.816 420.028 114.266C416.103 107.209 409.072 102.722 399.623 102.722C381.558 102.722 373.707 114.912 373.707 129.98Z" fill="#124E31"/>
<path d="M382.868 106.739C382.868 115.464 389.941 122.538 398.668 122.538C407.393 122.538 414.466 115.466 414.466 106.739C414.466 98.0135 407.393 90.9395 398.668 90.9395C389.942 90.9395 382.868 98.0135 382.868 106.739Z" fill="#124E31"/>
<path d="M377.09 136.467C377.09 136.467 372.904 130.886 369.792 135.501C366.679 140.116 371.079 153.746 378.699 150.42L377.09 136.467Z" fill="#E2F14D"/>
<path d="M377.037 146.207C376.755 146.207 376.497 146.02 376.416 145.736C375.235 141.528 370.875 139.822 370.831 139.805C370.499 139.679 370.332 139.307 370.458 138.975C370.583 138.643 370.955 138.475 371.287 138.602C371.491 138.679 376.294 140.543 377.656 145.389C377.751 145.732 377.552 146.087 377.21 146.183C377.153 146.198 377.094 146.207 377.037 146.207Z" fill="#124E31"/>
<path d="M372.636 144.086C372.517 144.086 372.396 144.053 372.288 143.984C371.989 143.792 371.902 143.393 372.094 143.094C372.126 143.045 372.897 141.867 374.512 141.145C374.835 141 375.217 141.145 375.362 141.47C375.508 141.794 375.362 142.175 375.038 142.321C373.79 142.879 373.184 143.782 373.178 143.792C373.055 143.983 372.847 144.086 372.636 144.086Z" fill="#124E31"/>
<path d="M420.227 136.467C420.227 136.467 424.412 130.886 427.525 135.501C430.638 140.116 426.237 153.746 418.617 150.42L420.227 136.467Z" fill="#E2F14D"/>
<path d="M420.281 146.207C420.563 146.207 420.821 146.02 420.9 145.736C422.082 141.528 426.441 139.822 426.486 139.805C426.817 139.679 426.984 139.307 426.858 138.975C426.732 138.643 426.36 138.475 426.029 138.602C425.825 138.679 421.021 140.543 419.66 145.389C419.564 145.732 419.763 146.087 420.106 146.183C420.164 146.198 420.224 146.207 420.281 146.207Z" fill="#124E31"/>
<path d="M424.682 144.086C424.801 144.086 424.923 144.053 425.031 143.984C425.33 143.792 425.416 143.393 425.224 143.094C425.192 143.045 424.421 141.867 422.807 141.145C422.483 141 422.101 141.145 421.956 141.47C421.81 141.794 421.956 142.175 422.28 142.321C423.528 142.879 424.135 143.782 424.141 143.792C424.263 143.983 424.471 144.086 424.682 144.086Z" fill="#124E31"/>
<path d="M408.963 161.98V175.535C408.963 175.535 404.92 182.438 399.453 182.908C393.992 183.385 389.139 176.964 389.139 176.964V162.933L408.963 161.98Z" fill="#FDBEAB"/>
<path d="M408.963 161.98V167.994C405.295 172.065 398.779 173.082 389.139 171.658V162.933L408.963 161.98Z" fill="#E2F14D"/>
<path d="M374.616 130.62C374.621 130.865 374.626 131.117 374.631 131.375C374.648 132.033 374.669 132.703 374.7 133.394C374.716 133.742 374.733 134.09 374.754 134.438C374.776 134.791 374.791 135.144 374.819 135.503C374.819 135.519 374.819 135.561 374.825 135.621C374.846 135.937 374.872 136.254 374.894 136.58C375.098 139.232 375.419 142.012 375.916 144.78C375.927 144.838 375.938 144.903 375.948 144.962C376.028 145.412 376.12 145.862 376.211 146.312C378.15 155.828 382.258 164.928 390.681 167.932C410.658 175.066 417.792 157.939 420.646 147.951C420.903 147.045 421.144 146.049 421.352 145C421.401 144.77 421.449 144.534 421.492 144.294C421.502 144.236 421.513 144.176 421.524 144.111C422.499 138.923 422.997 132.5 423.248 127.322C423.248 127.268 423.253 127.22 423.253 127.171C423.543 121.098 419.9 115.512 414.218 113.332C406.024 110.184 393.583 107.688 381.796 114.371C377.442 116.84 374.71 121.415 374.615 126.416C374.594 127.695 374.589 129.109 374.616 130.62Z" fill="#FDBEAB"/>
<path d="M375.917 144.78C375.928 144.838 375.938 144.903 375.949 144.962C377.77 154.956 381.861 164.783 390.682 167.932C410.659 175.066 417.792 157.939 420.646 147.951C420.963 146.843 421.247 145.605 421.492 144.293C421.503 144.234 421.514 144.175 421.525 144.11L419.377 143.96C419.377 143.96 417.69 147.452 415.205 151.297C412.719 145.834 400.723 149.808 400.723 149.808C399.968 150.049 399.187 150.171 398.399 150.171C397.639 150.171 396.878 150.053 396.139 149.823L396.081 149.808C396.081 149.808 383.946 146 381.551 151.73C380.083 149.485 378.889 146.963 378.349 144.286L375.917 144.78ZM398.431 152.4C412.195 150.033 409.871 156.936 409.641 158.383V158.387C409.636 158.387 409.636 158.387 409.636 158.387C408.704 159.276 407.751 160.027 406.813 160.529C401.485 163.41 400.906 162.976 398.801 163.068C396.664 163.169 393.714 162.538 390.72 160.867C389.784 160.342 388.39 159.33 386.864 157.938C386.864 157.938 384.706 150.547 398.431 152.4Z" fill="#124E31"/>
<path d="M390.094 138.235C390.094 139.683 389.348 140.855 388.428 140.855C387.508 140.855 386.763 139.683 386.763 138.235C386.763 136.788 387.508 135.615 388.428 135.615C389.348 135.615 390.094 136.789 390.094 138.235Z" fill="#124E31"/>
<path d="M409.726 138.182C409.726 139.629 408.98 140.802 408.06 140.802C407.14 140.802 406.395 139.629 406.395 138.182C406.395 136.734 407.14 135.561 408.06 135.561C408.981 135.561 409.726 136.735 409.726 138.182Z" fill="#124E31"/>
<path d="M413.49 129.178C413.49 129.178 408.234 127.101 404.188 128.849L404.593 131.099C404.593 131.099 410.532 130.597 413.525 131.81C413.793 130.944 413.833 130.068 413.49 129.178Z" fill="#124E31"/>
<path d="M382.87 129.178C382.87 129.178 388.125 127.101 392.171 128.849L391.767 131.099C391.767 131.099 385.827 130.597 382.835 131.81C382.568 130.944 382.528 130.068 382.87 129.178Z" fill="#124E31"/>
<path d="M399.457 149.216C400.542 149.216 401.62 148.793 401.788 148.725C402.117 148.59 402.275 148.216 402.14 147.887C402.007 147.557 401.629 147.4 401.301 147.533C400.719 147.77 399.323 148.139 398.718 147.778C398.601 147.708 398.443 147.569 398.402 147.178C398.169 144.929 398.785 137.392 398.791 137.315C398.82 136.961 398.557 136.65 398.202 136.621C397.846 136.591 397.537 136.856 397.507 137.21C397.481 137.525 396.876 144.944 397.121 147.31C397.212 148.201 397.68 148.657 398.057 148.883C398.469 149.129 398.964 149.216 399.457 149.216Z" fill="#E2F14D"/>
<path d="M390.236 154.135C391.307 157.85 394.35 161.557 398.542 161.608C402.73 161.557 405.772 157.849 406.844 154.135H390.236Z" fill="white"/>
<path d="M374.616 130.62C374.62 130.865 374.626 131.117 374.631 131.375C374.648 132.033 374.674 132.709 374.7 133.394C374.716 133.742 374.733 134.09 374.754 134.438C374.775 134.791 374.791 135.144 374.818 135.503C374.818 135.519 374.818 135.561 374.824 135.621C374.846 135.937 374.872 136.254 374.894 136.58C375.098 139.232 375.419 142.012 375.916 144.78C375.927 144.838 375.938 144.903 375.948 144.962C376.028 145.412 376.12 145.862 376.211 146.312L378.428 144.657C378.288 143.221 377.147 133.817 377.325 132.928C377.952 129.817 381.679 126.491 380.818 123.492C379.961 120.481 378.681 116.605 381.016 116.069C383.346 115.529 392.953 115.443 398.935 115.635C404.875 115.828 413.416 114.676 416.849 117.365C420.282 120.042 410.427 125.414 418.033 127.75C420.437 128.489 419.607 141.032 419.285 143.961L421.353 145C421.402 144.77 421.45 144.534 421.493 144.294C421.503 144.236 421.514 144.176 421.525 144.111C422.5 138.923 422.998 132.5 423.249 127.322C423.249 127.268 423.254 127.22 423.254 127.171C423.544 121.098 419.901 115.512 414.219 113.332C406.025 110.184 393.584 107.688 381.797 114.371C377.443 116.84 374.711 121.415 374.616 126.416C374.594 127.695 374.589 129.109 374.616 130.62Z" fill="#124E31"/>
<path d="M409.361 175.819C411.042 177.002 413.207 178.389 416.329 180.076C417.919 180.939 419.644 181.854 421.443 182.807C424.223 184.269 427.179 185.822 430.109 187.408L430.114 187.413C434.458 189.758 438.731 192.184 442.282 194.493C445.826 196.812 448.643 199.024 450.037 200.94C452.045 203.714 453.347 221.666 454.182 245.295C454.214 246.12 454.24 246.961 454.273 247.807C454.277 247.908 454.277 248.005 454.277 248.112C454.31 248.975 454.336 249.853 454.363 250.737C454.443 253.393 454.524 256.108 454.598 258.872C454.62 259.455 454.631 260.04 454.641 260.628C454.657 261.067 454.668 261.506 454.673 261.945C454.759 265.33 454.835 268.778 454.904 272.266C454.951 274.655 455 277.059 455.037 279.475C455.771 321.602 455.595 367.291 455.423 379.715C446.318 382.017 437.208 383.752 428.104 384.926H428.099C425.726 385.232 423.348 385.499 420.982 385.729C420.19 385.804 419.396 385.874 418.609 385.938C414.341 386.302 410.072 386.549 405.804 386.672C398.751 386.87 391.697 386.726 384.639 386.248C379.792 385.921 374.94 385.435 370.093 384.787C361.3 383.614 352.505 381.921 343.706 379.715C343.545 364.896 343.893 301.55 345.666 254.17C345.699 253.41 345.726 252.659 345.752 251.91C346.813 224.618 348.355 203.094 350.567 200.057C353.233 196.405 360.464 191.895 368.112 187.595C371.223 185.844 374.404 184.13 377.378 182.523C382.284 179.872 386.627 177.5 389.133 175.744C389.133 175.744 393.991 183.386 399.454 182.91C404.429 182.481 408.304 176.586 408.962 175.536L409.361 175.819Z" fill="#E2F14D"/>
<path d="M428.585 350.192H428.582C410.239 350.111 394.58 341.763 384.676 334.775C373.964 327.217 367.472 319.559 367.407 319.483C367.094 319.111 367.141 318.553 367.515 318.24C367.888 317.926 368.446 317.974 368.758 318.346C368.821 318.421 375.195 325.933 385.734 333.361C395.423 340.191 410.724 348.348 428.59 348.426C429.078 348.428 429.471 348.826 429.47 349.312C429.466 349.799 429.071 350.192 428.585 350.192Z" fill="#FBB040"/>
<path d="M409.468 356.425C393.55 356.425 377.677 347.355 376.955 346.936C376.534 346.691 376.39 346.152 376.633 345.729C376.876 345.307 377.417 345.164 377.838 345.407C378.024 345.515 396.703 356.181 413.263 354.468C413.755 354.412 414.182 354.771 414.232 355.255C414.282 355.74 413.93 356.174 413.445 356.224C412.125 356.362 410.796 356.425 409.468 356.425Z" fill="#FBB040"/>
<path d="M385.47 205.963C385.053 205.963 384.683 205.669 384.603 205.245C384.513 204.767 384.827 204.304 385.306 204.213C407.672 199.969 414.412 185.582 414.477 185.437C414.678 184.993 415.2 184.795 415.645 184.996C416.089 185.197 416.286 185.719 416.085 186.165C415.803 186.79 408.893 201.534 385.636 205.948C385.579 205.959 385.523 205.963 385.47 205.963Z" fill="#FBB040"/>
<path d="M430.177 251.635H429.111C423.316 251.635 418.617 246.938 418.617 241.143V227.665H440.67V241.143C440.671 246.938 435.972 251.635 430.177 251.635Z" fill="#FBB040"/>
<path d="M315.106 392.159C315.097 392.111 315.093 392.066 315.084 392.018C313.384 381.992 318.214 372.914 320.297 373.204C322.385 373.499 318.572 384.153 320.427 387.993C322.276 391.832 324.671 384.37 327.055 379.847C329.527 375.147 329.382 364.893 328.258 357.576C327.134 350.255 340.399 305.8 340.466 292.919L342.082 287.457L348 267.461L357.265 236.147C357.265 236.147 351.716 212.446 342.357 214.483C342.357 214.483 337.403 230.992 332.108 249.61C331.212 252.77 330.305 255.993 329.408 259.206C325.635 272.705 322.092 286.032 320.444 293.939C316.091 314.817 315.755 358.213 315.755 358.213C315.755 358.213 308.076 374.157 307.894 381.252C307.792 385.308 308.886 388.92 309.852 392.16H315.106V392.159Z" fill="#FDBEAB"/>
<path d="M329.406 259.204L342.081 287.455L347.999 267.459L332.106 249.608C331.21 252.769 330.303 255.992 329.406 259.204Z" fill="#E2F14D"/>
<path d="M328.779 250.79C334.339 260.324 339.992 269.807 345.625 279.305C347.48 273.093 349.403 267.128 351.205 261.646C351.21 261.63 351.216 261.62 351.221 261.604C351.942 259.412 352.646 257.298 353.32 255.277C353.33 255.24 353.341 255.204 353.357 255.173C353.589 254.463 353.817 253.764 354.051 253.079V253.074C356.74 244.944 358.824 238.482 359.419 234.716C361.025 224.575 357.265 206.583 351.686 201.468L351.052 200.985C350.691 200.77 350.553 200.448 350.148 200.864C348.246 202.818 343.651 209.403 341.271 215.425C340.966 216.192 340.656 216.99 340.334 217.803C336.889 226.657 332.676 238.177 328.779 250.79Z" fill="#E2F14D"/>
<path d="M344.777 284.908C346.611 277.327 348.918 268.902 351.202 261.642C351.207 261.627 351.213 261.616 351.218 261.6C351.923 259.357 352.627 257.228 353.317 255.273C353.327 255.237 353.337 255.2 353.352 255.169C353.565 254.553 353.783 253.957 353.994 253.376C354.025 253.272 354.046 253.175 354.046 253.076V253.071C354.046 252.724 353.828 252.398 353.481 252.268C353.03 252.107 352.533 252.335 352.372 252.786C350.03 259.17 347.263 268.362 344.89 277.378C344.85 279.877 344.813 282.391 344.777 284.908Z" fill="#FBB040"/>
<path d="M447.13 253.074V253.079C447.13 253.176 447.151 253.272 447.184 253.379C447.398 253.957 447.612 254.551 447.825 255.167C447.842 255.199 447.853 255.236 447.864 255.274C448.554 257.229 449.256 259.355 449.962 261.599C449.967 261.616 449.973 261.627 449.978 261.642C451.723 267.201 453.49 273.451 455.039 279.476C455.002 277.061 454.953 274.656 454.906 272.267C452.887 264.989 450.702 257.963 448.806 252.783C448.645 252.333 448.148 252.109 447.698 252.269C447.349 252.399 447.13 252.726 447.13 253.074Z" fill="#FBB040"/>
<path d="M488.914 272.86C484.011 262.394 450.358 201.525 450.358 201.525C444.01 205.304 454.753 265.18 454.753 265.18L468.104 299.264C471.164 307.312 480.694 310.699 488.155 306.401C488.282 306.329 488.41 306.253 488.539 306.177C501.41 298.533 488.914 272.86 488.914 272.86Z" fill="#FDBEAB"/>
<path d="M450.357 201.525L481.451 245.984C481.451 245.984 469.09 272.933 454.898 271.909C454.898 271.909 437.401 210.642 450.357 201.525Z" fill="#E2F14D"/>
<path d="M489.695 244.925L489.304 249.42L488.639 256.997L488.51 258.451L487.951 264.897L487.332 271.909L487.306 272.24L486.606 280.274L485.986 287.434L485.213 296.317H460.522L460.341 294.284L459.594 285.645L459.137 280.435L458.396 271.909L458.383 271.768L457.925 266.574L457.226 258.451L457.172 257.866L456.721 252.697L456.041 244.925H489.695Z" fill="#124E31"/>
<path d="M488.51 258.451L487.951 264.897L487.332 271.909H458.396L458.383 271.768L457.925 266.573L457.226 258.451H488.51Z" fill="white"/>
<path d="M491.422 238.354H454.314V244.924H491.422V238.354Z" fill="url(#paint34_linear_20_650)"/>
<path d="M488.626 238.353H457.11V234.537C457.11 233.563 457.9 232.773 458.874 232.773H486.862C487.836 232.773 488.626 233.563 488.626 234.537V238.353Z" fill="#124E31"/>
<path d="M490.537 249.629C490.537 249.629 485.859 249.942 479.154 251.51C475.749 252.306 468.351 256.767 471.508 258.408C474.001 259.702 485.204 256.569 487.419 257.587C487.419 257.587 482.122 258.672 477.609 259.368C473.529 259.998 467.225 262.377 469.679 263.679C471.997 264.909 477.809 264.405 479.879 264.46C482.628 264.532 486.107 264.484 486.107 264.484C486.107 264.484 481.72 265.214 476.55 266.775C474.185 267.49 467.359 268.178 469.528 271.261C470.616 272.809 479.831 271.692 484.459 272.106C484.459 272.106 475.934 273.55 473.462 275.868C471.506 277.701 474.17 277.949 477.611 278.195C482.049 278.512 483.41 278.195 486.106 278.195C488.801 278.195 493.335 276.286 493.43 273.52C493.527 270.755 491.983 269.598 492.465 267.861C492.948 266.124 494.069 263.468 493.434 261.943C492.799 260.419 492.99 259.139 493.624 257.152C494.248 255.204 493.14 250.434 490.537 249.629Z" fill="#FDBEAB"/>
<path d="M401.418 139.198C401.418 134.772 405.019 131.171 409.445 131.171C413.872 131.171 417.473 134.772 417.473 139.198C417.473 143.625 413.872 147.226 409.445 147.226C405.02 147.226 401.418 143.625 401.418 139.198ZM402.67 139.198C402.67 142.935 405.708 145.975 409.445 145.975C413.182 145.975 416.221 142.935 416.221 139.198C416.221 135.461 413.181 132.422 409.445 132.422C405.708 132.421 402.67 135.461 402.67 139.198Z" fill="white"/>
<path d="M379.477 139.198C379.477 134.772 383.077 131.171 387.504 131.171C391.931 131.171 395.531 134.772 395.531 139.198C395.531 143.625 391.931 147.226 387.504 147.226C383.077 147.226 379.477 143.625 379.477 139.198ZM380.728 139.198C380.728 142.935 383.768 145.975 387.504 145.975C391.241 145.975 394.28 142.935 394.28 139.198C394.28 135.461 391.24 132.422 387.504 132.422C383.767 132.421 380.728 135.461 380.728 139.198Z" fill="white"/>
<path d="M423.809 133.13C423.809 132.785 423.531 132.501 423.187 132.499C418.832 132.459 415.821 135.399 415.675 135.542C415.431 135.786 415.43 136.182 415.673 136.428C415.795 136.551 415.956 136.611 416.117 136.611C416.276 136.611 416.435 136.551 416.557 136.43C416.588 136.399 419.329 133.742 423.172 133.757C423.523 133.759 423.809 133.481 423.809 133.13Z" fill="white"/>
<path d="M381.028 135.462C380.847 135.344 377.578 133.236 373.909 132.544C373.524 132.471 373.166 132.77 373.166 133.162C373.166 133.46 373.375 133.719 373.667 133.775C377.111 134.428 380.301 136.483 380.343 136.51C380.448 136.579 380.567 136.611 380.684 136.611C380.888 136.611 381.088 136.511 381.209 136.327C381.399 136.04 381.318 135.652 381.028 135.462Z" fill="white"/>
<path d="M395.09 137.394C395.104 137.375 396.591 135.365 398.545 135.365C400.48 135.365 401.824 137.371 401.837 137.392L402.884 136.707C402.815 136.601 401.164 134.113 398.545 134.113C395.944 134.113 394.149 136.558 394.074 136.663L395.09 137.394Z" fill="white"/>
<path d="M188.272 225.406L204.163 283.183L204.475 284.238C204.475 284.499 204.485 284.77 204.494 285.059C205.073 299.064 217.949 342.446 216.834 349.705C215.695 357.118 215.551 367.498 218.051 372.256C220.463 376.838 222.889 384.391 224.764 380.505C226.64 376.614 222.781 365.828 224.891 365.533C227.004 365.235 231.893 374.43 230.167 384.581C228.445 394.733 234.547 397.453 234.085 392.443C233.628 387.428 237.649 381.335 237.453 373.68C237.267 366.495 229.494 350.353 229.494 350.353C229.494 350.353 229.154 306.411 224.75 285.273C220.341 264.136 202.832 197.745 202.832 197.745C192.94 208.232 188.272 225.406 188.272 225.406Z" fill="#FDBEAB"/>
<path d="M204.172 283.216L204.475 284.237C204.475 284.489 204.483 284.751 204.493 285.031C207.565 283.975 210.516 283.082 212.691 282.671C213.178 282.58 213.508 282.107 213.413 281.615C213.322 281.114 212.848 280.79 212.357 280.893C210.146 281.312 207.218 282.178 204.172 283.216Z" fill="#E2F14D"/>
<path d="M208.791 391.919C208.18 387.991 207.584 384.041 207.005 380.129C206.621 377.507 206.246 374.909 205.875 372.343C204.472 362.529 203.218 353.249 202.212 345.548C201.828 342.623 201.484 339.921 201.171 337.512C200.196 329.825 199.622 325.05 199.622 325.05L156.44 326.682L113.126 325.05C113.126 325.05 112.009 334.499 110.222 348.197C109.895 350.691 109.546 353.32 109.18 356.066C108.218 363.254 107.119 371.193 105.937 379.322C105.919 379.441 105.901 379.561 105.883 379.68C105.512 382.213 105.138 384.764 104.749 387.315C104.744 387.35 104.74 387.381 104.731 387.416V387.421C104.505 388.923 104.276 390.424 104.046 391.922H208.791V391.919Z" fill="#124E31"/>
<path d="M123.08 338.019C123.08 340.267 121.258 342.089 119.01 342.089C116.762 342.089 114.94 340.267 114.94 338.019C114.94 335.771 116.762 333.95 119.01 333.95C121.258 333.95 123.08 335.771 123.08 338.019Z" fill="#124E31"/>
<path d="M133.181 353.787C133.181 356.034 131.359 357.856 129.111 357.856C126.863 357.856 125.041 356.034 125.041 353.787C125.041 351.539 126.863 349.717 129.111 349.717C131.357 349.717 133.181 351.539 133.181 353.787Z" fill="#124E31"/>
<path d="M153.05 345.647C153.05 347.895 151.228 349.717 148.98 349.717C146.732 349.717 144.91 347.895 144.91 345.647C144.91 343.399 146.732 341.577 148.98 341.577C151.228 341.577 153.05 343.399 153.05 345.647Z" fill="#124E31"/>
<path d="M121.689 370.531C121.689 372.779 119.867 374.601 117.62 374.601C115.372 374.601 113.55 372.779 113.55 370.531C113.55 368.283 115.372 366.461 117.62 366.461C119.866 366.461 121.689 368.283 121.689 370.531Z" fill="#124E31"/>
<path d="M146.518 368.791C146.518 371.039 144.697 372.861 142.449 372.861C140.201 372.861 138.379 371.039 138.379 368.791C138.379 366.544 140.201 364.722 142.449 364.722C144.697 364.72 146.518 366.544 146.518 368.791Z" fill="#124E31"/>
<path d="M112.871 352.014C112.871 354.131 111.255 355.875 109.182 356.065C109.548 353.32 109.896 350.69 110.223 348.197C111.772 348.774 112.871 350.262 112.871 352.014Z" fill="#124E31"/>
<path d="M186.903 391.919C186.538 390.046 184.89 388.632 182.909 388.632C180.929 388.632 179.281 390.046 178.916 391.919H186.903Z" fill="#124E31"/>
<path d="M180.988 374.601C183.235 374.601 185.058 372.779 185.058 370.531C185.058 368.283 183.235 366.461 180.988 366.461C178.74 366.461 176.918 368.283 176.918 370.531C176.918 372.779 178.74 374.601 180.988 374.601Z" fill="#124E31"/>
<path d="M207.005 380.129C206.515 380.336 205.973 380.451 205.407 380.451C203.161 380.451 201.339 378.628 201.339 376.382C201.339 374.136 203.162 372.314 205.407 372.314C205.566 372.314 205.72 372.322 205.875 372.345C206.246 374.909 206.621 377.507 207.005 380.129Z" fill="#124E31"/>
<path d="M108.272 383.386C108.272 385.451 106.732 387.159 104.733 387.415C104.742 387.379 104.747 387.348 104.751 387.314C105.14 384.763 105.515 382.212 105.886 379.679C107.293 380.323 108.272 381.739 108.272 383.386Z" fill="#124E31"/>
<path d="M135.265 387.471C135.265 389.719 133.443 391.541 131.195 391.541C128.947 391.541 127.125 389.719 127.125 387.471C127.125 385.223 128.947 383.401 131.195 383.401C133.443 383.401 135.265 385.223 135.265 387.471Z" fill="#124E31"/>
<path d="M157.119 383.401C157.119 385.649 155.297 387.471 153.049 387.471C150.801 387.471 148.979 385.649 148.979 383.401C148.979 381.153 150.801 379.332 153.049 379.332C155.297 379.332 157.119 381.155 157.119 383.401Z" fill="#124E31"/>
<path d="M166.958 361.926C166.958 364.174 165.136 365.996 162.888 365.996C160.64 365.996 158.818 364.174 158.818 361.926C158.818 359.678 160.64 357.856 162.888 357.856C165.135 357.856 166.958 359.678 166.958 361.926Z" fill="#124E31"/>
<path d="M202.212 345.548C201.93 345.615 201.639 345.646 201.339 345.646C199.089 345.646 197.271 343.823 197.271 341.577C197.271 339.388 199.001 337.597 201.172 337.514C201.485 339.921 201.829 342.623 202.212 345.548Z" fill="#124E31"/>
<path d="M180.988 345.647C180.988 347.895 179.166 349.717 176.918 349.717C174.671 349.717 172.849 347.895 172.849 345.647C172.849 343.399 174.671 341.577 176.918 341.577C179.165 341.577 180.988 343.399 180.988 345.647Z" fill="#124E31"/>
<path d="M195.893 360.151C195.893 362.399 194.072 364.221 191.824 364.221C189.576 364.221 187.754 362.399 187.754 360.151C187.754 357.903 189.576 356.081 191.824 356.081C194.072 356.081 195.893 357.903 195.893 360.151Z" fill="#124E31"/>
<path d="M201.548 326.118C178.768 340.99 136.941 339.825 110.658 326.118C113.168 310.478 116.474 294.821 115.763 274.004C115.683 271.723 115.587 269.455 115.472 267.208C115.371 265.254 115.256 263.311 115.132 261.392C112.864 226.762 106.954 198.448 109.859 194.79C111.126 193.187 113.239 191.458 115.847 189.688C116.871 188.991 117.965 188.285 119.121 187.578C121.848 185.915 124.88 184.238 127.925 182.605C135.149 178.748 142.484 175.17 146.16 172.725C149.805 174.313 152.709 175.183 155.837 175.165C155.921 175.165 156.014 175.165 156.107 175.157C156.19 175.165 156.283 175.165 156.367 175.165C159.495 175.183 162.399 174.313 166.049 172.725C169.46 174.993 175.882 178.157 182.434 181.608C187.249 184.146 192.135 186.837 195.938 189.45C198.427 191.159 200.461 192.835 201.706 194.407C203.145 196.22 202.54 204.172 201.309 215.956C200.09 227.548 198.268 242.857 197.165 259.685C196.861 264.359 196.609 269.147 196.441 274.005C195.735 294.821 199.037 310.478 201.548 326.118Z" fill="#E2F14D"/>
<path d="M185.558 309.821H185.554C167.211 309.741 151.553 301.393 141.648 294.404C130.936 286.846 124.445 279.188 124.38 279.112C124.066 278.74 124.114 278.183 124.488 277.869C124.861 277.555 125.418 277.603 125.731 277.975C125.794 278.05 132.168 285.562 142.707 292.991C152.396 299.82 167.697 307.977 185.563 308.055C186.051 308.057 186.443 308.455 186.441 308.942C186.439 309.428 186.044 309.821 185.558 309.821Z" fill="#FBB040"/>
<path d="M166.442 316.054C150.524 316.054 134.651 306.982 133.929 306.565C133.507 306.32 133.363 305.781 133.607 305.359C133.85 304.936 134.391 304.794 134.812 305.036C134.999 305.144 153.677 315.81 170.237 314.097C170.729 314.041 171.156 314.399 171.206 314.885C171.256 315.369 170.904 315.803 170.419 315.853C169.099 315.991 167.77 316.054 166.442 316.054Z" fill="#FBB040"/>
<path d="M152.349 217.335C151.932 217.335 151.562 217.041 151.482 216.617C151.392 216.138 151.706 215.677 152.185 215.585C174.55 211.341 181.29 196.954 181.356 196.809C181.557 196.365 182.079 196.167 182.524 196.368C182.968 196.569 183.165 197.091 182.964 197.536C182.682 198.162 175.772 212.906 152.514 217.32C152.458 217.33 152.402 217.335 152.349 217.335Z" fill="#FBB040"/>
<path d="M182.433 181.609C177.993 191.734 167.565 205.468 153.374 203.016C139.632 200.641 132.629 190.123 127.925 182.605C135.15 178.747 142.485 175.172 146.159 172.726C149.806 174.313 152.71 175.182 155.836 175.167C155.92 175.167 156.015 175.167 156.105 175.158C156.19 175.167 156.284 175.167 156.369 175.167C159.495 175.182 162.4 174.313 166.05 172.726C169.46 174.992 175.883 178.156 182.433 181.609Z" fill="#FDBEAB"/>
<path d="M156.369 175.522V175.535C156.283 175.535 156.191 175.535 156.105 175.528C156.191 175.528 156.284 175.522 156.369 175.522Z" fill="#124E31"/>
<path d="M179.063 102.327C179.063 102.327 189.8 118.958 188.624 136.282C187.448 153.606 190.206 173.604 174.705 172.725C159.204 171.846 131.554 178.94 122.765 165.447C113.977 151.955 179.063 102.327 179.063 102.327Z" fill="#124E31"/>
<path d="M133.548 132.791C133.548 132.791 129.269 127.087 126.088 131.804C122.906 136.522 127.404 150.454 135.194 147.054L133.548 132.791Z" fill="#E2F14D"/>
<path d="M133.493 142.748C133.206 142.748 132.942 142.558 132.86 142.267C131.652 137.966 127.196 136.221 127.152 136.205C126.813 136.076 126.641 135.695 126.771 135.356C126.9 135.017 127.279 134.846 127.618 134.973C127.827 135.052 132.738 136.957 134.128 141.911C134.226 142.261 134.022 142.625 133.672 142.723C133.611 142.739 133.552 142.748 133.493 142.748Z" fill="#124E31"/>
<path d="M128.995 140.581C128.874 140.581 128.749 140.548 128.64 140.476C128.334 140.279 128.246 139.871 128.443 139.566C128.476 139.514 129.264 138.313 130.914 137.574C131.244 137.425 131.634 137.574 131.784 137.906C131.932 138.238 131.784 138.627 131.452 138.776C130.176 139.347 129.557 140.27 129.551 140.279C129.422 140.474 129.211 140.581 128.995 140.581Z" fill="#124E31"/>
<path d="M177.642 132.791C177.642 132.791 181.92 127.087 185.101 131.804C188.282 136.522 183.785 150.454 175.995 147.054L177.642 132.791Z" fill="#E2F14D"/>
<path d="M177.696 142.748C177.984 142.748 178.249 142.558 178.33 142.267C179.537 137.966 183.993 136.221 184.038 136.205C184.376 136.076 184.547 135.695 184.419 135.356C184.291 135.017 183.911 134.846 183.572 134.973C183.365 135.052 178.453 136.957 177.063 141.911C176.965 142.261 177.169 142.625 177.518 142.723C177.578 142.739 177.638 142.748 177.696 142.748Z" fill="#124E31"/>
<path d="M182.194 140.581C182.316 140.581 182.44 140.548 182.55 140.476C182.855 140.279 182.944 139.871 182.747 139.566C182.715 139.514 181.926 138.313 180.276 137.574C179.945 137.425 179.555 137.574 179.406 137.906C179.258 138.238 179.406 138.627 179.738 138.776C181.013 139.347 181.634 140.27 181.638 140.279C181.766 140.474 181.978 140.581 182.194 140.581Z" fill="#124E31"/>
<path d="M166.126 158.87V172.726C166.126 172.726 161.995 179.783 156.406 180.263C150.823 180.75 145.862 174.188 145.862 174.188V159.845L166.126 158.87Z" fill="#FDBEAB"/>
<path d="M166.126 158.87V165.019C162.376 169.179 155.719 170.654 145.865 169.199L145.862 159.845L166.126 158.87Z" fill="#E2F14D"/>
<path d="M180.736 123.286C180.479 128.671 179.966 135.405 178.939 140.789C178.682 142.131 178.392 143.394 178.07 144.527C175.154 154.736 167.86 172.245 147.442 164.952C138.425 161.733 134.245 151.689 132.381 141.473C131.118 134.535 130.927 127.526 131.019 122.516C131.118 117.401 133.909 112.727 138.358 110.207C150.41 103.374 163.127 105.922 171.499 109.141C177.312 111.372 181.031 117.08 180.736 123.286Z" fill="#FDBEAB"/>
<path d="M146.601 133.605C146.601 135.084 145.839 136.282 144.899 136.282C143.959 136.282 143.196 135.083 143.196 133.605C143.196 132.125 143.959 130.926 144.899 130.926C145.84 130.926 146.601 132.125 146.601 133.605Z" fill="#124E31"/>
<path d="M167.627 133.605C167.627 135.084 166.864 136.282 165.924 136.282C164.984 136.282 164.222 135.083 164.222 133.605C164.222 132.125 164.984 130.926 165.924 130.926C166.864 130.926 167.627 132.125 167.627 133.605Z" fill="#124E31"/>
<path d="M141.527 125.631C142.942 125.231 145.798 124.549 148.811 124.54C149.604 124.538 150.211 125.243 150.071 126.023L150.068 126.043C149.956 126.665 149.398 127.107 148.766 127.077C146.716 126.982 141.334 127.269 138.794 128.3C138.741 127.859 139.003 127.374 139.372 126.945C139.932 126.294 140.7 125.865 141.527 125.631Z" fill="#124E31"/>
<path d="M169.038 125.686C167.623 125.286 164.767 124.604 161.754 124.595C160.961 124.593 160.354 125.298 160.494 126.078L160.497 126.098C160.609 126.72 161.167 127.162 161.799 127.132C163.849 127.036 169.231 127.324 171.772 128.355C171.824 127.913 171.562 127.429 171.193 127C170.633 126.349 169.863 125.92 169.038 125.686Z" fill="#124E31"/>
<path d="M155.823 145.824C155.32 145.824 154.814 145.734 154.391 145.482C154.006 145.252 153.529 144.785 153.435 143.875C153.184 141.455 153.803 133.872 153.829 133.551C153.859 133.189 154.177 132.919 154.539 132.948C154.901 132.978 155.172 133.297 155.142 133.658C155.136 133.736 154.506 141.441 154.745 143.739C154.786 144.139 154.949 144.281 155.068 144.352C155.686 144.722 157.113 144.344 157.708 144.103C158.045 143.965 158.429 144.128 158.566 144.463C158.703 144.8 158.542 145.184 158.206 145.321C158.034 145.392 156.933 145.824 155.823 145.824Z" fill="#E2F14D"/>
<path d="M147.465 149.979C147.962 152.484 149.616 157.089 155.188 157.089C160.774 157.089 162.34 152.88 162.878 149.979H147.465Z" fill="white"/>
<path d="M155.108 160.931C153.5 160.931 152.081 160.065 152.02 160.028C151.711 159.837 151.615 159.431 151.807 159.121C151.998 158.812 152.402 158.717 152.711 158.906C152.723 158.913 153.881 159.614 155.107 159.614C156.435 159.614 157.623 158.911 157.635 158.904C157.947 158.718 158.351 158.818 158.539 159.128C158.726 159.438 158.627 159.843 158.317 160.03C158.256 160.067 156.812 160.931 155.108 160.931Z" fill="#E2F14D"/>
<path d="M183.385 122.214C183.172 122.814 182.586 123.198 181.8 123.427C181.857 124.879 181.705 126.625 181.561 128.299C180.749 137.813 178.349 139.483 177.807 137.13C177.449 135.569 177.47 126.608 177.642 123.686C175.762 123.562 174.156 123.249 174.156 123.249L171.95 114.012L171.178 123.134C167.868 124.285 160.145 122.441 160.145 122.441L157.554 113.337L155.953 122.097C150.989 124.515 144.784 122.905 144.784 122.905L143.358 113.456L140.067 122.905C140.067 122.905 129.475 126.704 129.361 122.905C129.29 120.694 130.909 114.467 132.278 109.643C133.769 104.382 137.225 99.9392 141.898 97.4324C155.036 90.381 168.927 94.131 173.694 96.9779C183.8 103.012 183.385 122.214 183.385 122.214Z" fill="#124E31"/>
<path d="M135.498 103.029C135.498 103.029 126.475 113.399 123.606 131.921C120.738 150.443 116.766 164.127 127.927 170.243C140.006 176.863 142.334 165.591 142.158 161.901C141.984 158.212 128.337 145.822 135.194 117.419C137.407 108.248 135.498 103.029 135.498 103.029Z" fill="#124E31"/>
<path d="M180.892 147.365C180.892 148.217 180.201 148.908 179.349 148.908C178.497 148.908 177.807 148.217 177.807 147.365C177.807 146.513 178.497 145.822 179.349 145.822C180.201 145.824 180.892 146.513 180.892 147.365Z" fill="white"/>
<path d="M115.132 261.392C112.864 226.762 106.954 198.448 109.859 194.79C111.126 193.187 113.239 191.458 115.847 189.688C118.504 202.147 125.212 239.64 115.132 261.392Z" fill="#FDBEAB"/>
<path d="M201.31 215.955C200.092 227.547 198.27 242.856 197.167 259.684C188.235 237.985 193.288 202.045 195.94 189.45C198.429 191.159 200.463 192.835 201.708 194.407C203.147 196.22 202.542 204.172 201.31 215.955Z" fill="#FDBEAB"/>
<path d="M120.074 231.675L110.026 263.949L99.0246 294.63C97.2552 301.053 90.1644 304.359 84.108 301.593C84.0018 301.545 83.8968 301.498 83.7906 301.45C73.3257 296.501 79.0957 275.978 79.0957 275.978L81.0715 275.824C81.8769 273.571 84.0496 267.838 86.8152 260.638C87.1493 259.752 87.4989 258.841 87.8545 257.92C88.4427 256.389 89.0524 254.809 89.6716 253.188C90.5569 250.898 91.4685 248.536 92.3896 246.155C99.1725 228.563 104.791 209.471 104.791 209.471L109.474 195.569L120.074 231.675Z" fill="#FDBEAB"/>
<path d="M91.8526 282.548C91.8085 282.554 91.7703 282.554 91.7261 282.554C91.3241 282.557 90.9697 282.268 90.9065 281.861C89.3769 272.132 87.8365 264.946 86.8164 260.636C87.1517 259.753 87.5037 258.842 87.8556 257.921C88.8113 261.719 90.6822 269.81 92.5399 281.602C92.6091 282.053 92.3036 282.473 91.8526 282.548Z" fill="#E2F14D"/>
<path d="M90.3537 283.024C90.3537 283.024 88.9124 259.645 83.924 254.672C78.9355 249.699 74.3813 247.803 69.7018 247.973C65.0235 248.142 60.6221 248.722 60.9108 250.646C60.9108 250.646 50.1642 249.022 45.3655 251.807C40.5667 254.592 59.5781 257.031 65.2216 257.178C70.8663 257.324 73.8467 260.478 74.0758 263.842C74.3037 267.207 77.561 289.488 77.561 289.488L90.3537 283.024Z" fill="#FDBEAB"/>
<path d="M96.046 252.158L24.8123 252.635C22.1337 252.653 19.9467 250.496 19.9288 247.817V247.776C19.9109 245.097 22.0681 242.91 24.7467 242.892L95.9803 242.415C98.6589 242.397 100.846 244.554 100.864 247.233V247.275C100.882 249.954 98.7245 252.14 96.046 252.158Z" fill="#124E31"/>
<path d="M19.9777 252.668L4.38341 195.796C3.50765 192.602 5.8975 189.445 9.21083 189.423L42.6866 189.199C44.9452 189.183 46.9377 190.672 47.5629 192.844L64.7142 252.368L19.9777 252.668Z" fill="#124E31"/>
<path d="M47.5652 192.845L64.5734 251.879L68.3986 251.854L51.3904 192.82C50.7605 190.648 48.7715 189.157 46.5117 189.172L42.6865 189.198C44.9451 189.182 46.9353 190.673 47.5652 192.845Z" fill="#124E31"/>
<path d="M39.1621 223.432C40.0569 227.185 37.7363 230.246 33.9779 230.271C30.2195 230.296 26.448 227.275 25.5532 223.523C24.6583 219.77 26.979 216.709 30.7374 216.684C34.4957 216.659 38.2684 219.681 39.1621 223.432Z" fill="#124E31"/>
<path d="M507.288 400.544V401.371C507.288 406.135 503.425 410 498.657 410H50.9959C46.2282 410 42.3672 406.135 42.3672 401.371V400.544C42.3672 395.78 46.2282 391.916 50.9959 391.916H498.657C503.425 391.916 507.288 395.78 507.288 400.544Z" fill="url(#paint35_linear_20_650)"/>
<path d="M507.288 400.544V400.957H42.3672V400.544C42.3672 395.78 46.2282 391.916 50.9959 391.916H498.657C503.425 391.916 507.288 395.78 507.288 400.544Z" fill="#124E31"/>
<defs>
<linearGradient id="paint0_linear_20_650" x1="276.543" y1="49.9943" x2="276.543" y2="389.059" gradientUnits="userSpaceOnUse">
<stop stop-color="#FDFA74"/>
<stop offset="1" stop-color="#46EAAA"/>
</linearGradient>
<linearGradient id="paint1_linear_20_650" x1="60.3468" y1="259.673" x2="60.3468" y2="333.185" gradientUnits="userSpaceOnUse">
<stop stop-color="#FDFA74"/>
<stop offset="1" stop-color="#46EAAA"/>
</linearGradient>
<linearGradient id="paint2_linear_20_650" x1="517.741" y1="236.005" x2="517.741" y2="288.048" gradientUnits="userSpaceOnUse">
<stop stop-color="#FDFA74"/>
<stop offset="1" stop-color="#46EAAA"/>
</linearGradient>
<linearGradient id="paint3_linear_20_650" x1="34.3519" y1="131.391" x2="34.3519" y2="167.445" gradientUnits="userSpaceOnUse">
<stop stop-color="#FDFA74"/>
<stop offset="1" stop-color="#46EAAA"/>
</linearGradient>
<linearGradient id="paint4_linear_20_650" x1="299.115" y1="20.1031" x2="299.115" y2="55.8327" gradientUnits="userSpaceOnUse">
<stop stop-color="#FDFA74"/>
<stop offset="1" stop-color="#46EAAA"/>
</linearGradient>
<linearGradient id="paint5_linear_20_650" x1="371.747" y1="116.945" x2="371.747" y2="150.471" gradientUnits="userSpaceOnUse">
<stop stop-color="#FDFA74"/>
<stop offset="1" stop-color="#46EAAA"/>
</linearGradient>
<linearGradient id="paint6_linear_20_650" x1="452.436" y1="77.6647" x2="452.436" y2="85.2972" gradientUnits="userSpaceOnUse">
<stop stop-color="#FDFA74"/>
<stop offset="1" stop-color="#46EAAA"/>
</linearGradient>
<linearGradient id="paint7_linear_20_650" x1="452.436" y1="86.8541" x2="452.436" y2="94.4866" gradientUnits="userSpaceOnUse">
<stop stop-color="#FDFA74"/>
<stop offset="1" stop-color="#46EAAA"/>
</linearGradient>
<linearGradient id="paint8_linear_20_650" x1="457.448" y1="84.8855" x2="457.448" y2="87.267" gradientUnits="userSpaceOnUse">
<stop stop-color="#FDFA74"/>
<stop offset="1" stop-color="#46EAAA"/>
</linearGradient>
<linearGradient id="paint9_linear_20_650" x1="447.425" y1="84.8855" x2="447.425" y2="87.267" gradientUnits="userSpaceOnUse">
<stop stop-color="#FDFA74"/>
<stop offset="1" stop-color="#46EAAA"/>
</linearGradient>
<linearGradient id="paint10_linear_20_650" x1="76.0316" y1="37.5598" x2="76.0316" y2="45.1923" gradientUnits="userSpaceOnUse">
<stop stop-color="#FDFA74"/>
<stop offset="1" stop-color="#46EAAA"/>
</linearGradient>
<linearGradient id="paint11_linear_20_650" x1="76.0316" y1="46.7482" x2="76.0316" y2="54.3806" gradientUnits="userSpaceOnUse">
<stop stop-color="#FDFA74"/>
<stop offset="1" stop-color="#46EAAA"/>
</linearGradient>
<linearGradient id="paint12_linear_20_650" x1="71.0197" y1="44.7794" x2="71.0197" y2="47.1609" gradientUnits="userSpaceOnUse">
<stop stop-color="#FDFA74"/>
<stop offset="1" stop-color="#46EAAA"/>
</linearGradient>
<linearGradient id="paint13_linear_20_650" x1="81.0431" y1="44.7794" x2="81.0431" y2="47.1609" gradientUnits="userSpaceOnUse">
<stop stop-color="#FDFA74"/>
<stop offset="1" stop-color="#46EAAA"/>
</linearGradient>
<linearGradient id="paint14_linear_20_650" x1="223.573" y1="16.8462" x2="223.573" y2="19.0178" gradientUnits="userSpaceOnUse">
<stop stop-color="#FDFA74"/>
<stop offset="1" stop-color="#46EAAA"/>
</linearGradient>
<linearGradient id="paint15_linear_20_650" x1="173.313" y1="54.9348" x2="173.313" y2="60.8411" gradientUnits="userSpaceOnUse">
<stop stop-color="#FDFA74"/>
<stop offset="1" stop-color="#46EAAA"/>
</linearGradient>
<linearGradient id="paint16_linear_20_650" x1="169.464" y1="63.6284" x2="169.464" y2="69.761" gradientUnits="userSpaceOnUse">
<stop stop-color="#FDFA74"/>
<stop offset="1" stop-color="#46EAAA"/>
</linearGradient>
<linearGradient id="paint17_linear_20_650" x1="164.739" y1="82.123" x2="164.739" y2="88.5028" gradientUnits="userSpaceOnUse">
<stop stop-color="#FDFA74"/>
<stop offset="1" stop-color="#46EAAA"/>
</linearGradient>
<linearGradient id="paint18_linear_20_650" x1="166.629" y1="72.7373" x2="166.629" y2="79.0244" gradientUnits="userSpaceOnUse">
<stop stop-color="#FDFA74"/>
<stop offset="1" stop-color="#46EAAA"/>
</linearGradient>
<linearGradient id="paint19_linear_20_650" x1="178.197" y1="46.8069" x2="178.197" y2="52.4104" gradientUnits="userSpaceOnUse">
<stop stop-color="#FDFA74"/>
<stop offset="1" stop-color="#46EAAA"/>
</linearGradient>
<linearGradient id="paint20_linear_20_650" x1="215.532" y1="18.7961" x2="215.532" y2="22.1171" gradientUnits="userSpaceOnUse">
<stop stop-color="#FDFA74"/>
<stop offset="1" stop-color="#46EAAA"/>
</linearGradient>
<linearGradient id="paint21_linear_20_650" x1="206.747" y1="22.4635" x2="206.747" y2="26.3062" gradientUnits="userSpaceOnUse">
<stop stop-color="#FDFA74"/>
<stop offset="1" stop-color="#46EAAA"/>
</linearGradient>
<linearGradient id="paint22_linear_20_650" x1="190.89" y1="32.8165" x2="190.89" y2="37.6158" gradientUnits="userSpaceOnUse">
<stop stop-color="#FDFA74"/>
<stop offset="1" stop-color="#46EAAA"/>
</linearGradient>
<linearGradient id="paint23_linear_20_650" x1="198.49" y1="27.156" x2="198.49" y2="31.4891" gradientUnits="userSpaceOnUse">
<stop stop-color="#FDFA74"/>
<stop offset="1" stop-color="#46EAAA"/>
</linearGradient>
<linearGradient id="paint24_linear_20_650" x1="184.084" y1="39.3938" x2="184.084" y2="44.6227" gradientUnits="userSpaceOnUse">
<stop stop-color="#FDFA74"/>
<stop offset="1" stop-color="#46EAAA"/>
</linearGradient>
<linearGradient id="paint25_linear_20_650" x1="74.618" y1="302.791" x2="74.618" y2="398.935" gradientUnits="userSpaceOnUse">
<stop stop-color="#FDFA74"/>
<stop offset="1" stop-color="#46EAAA"/>
</linearGradient>
<linearGradient id="paint26_linear_20_650" x1="96.6503" y1="268.424" x2="96.6503" y2="385.923" gradientUnits="userSpaceOnUse">
<stop stop-color="#FDFA74"/>
<stop offset="1" stop-color="#46EAAA"/>
</linearGradient>
<linearGradient id="paint27_linear_20_650" x1="478.436" y1="159.184" x2="478.436" y2="262.565" gradientUnits="userSpaceOnUse">
<stop stop-color="#FDFA74"/>
<stop offset="1" stop-color="#46EAAA"/>
</linearGradient>
<linearGradient id="paint28_linear_20_650" x1="458.744" y1="129.827" x2="458.744" y2="244.801" gradientUnits="userSpaceOnUse">
<stop stop-color="#FDFA74"/>
<stop offset="1" stop-color="#46EAAA"/>
</linearGradient>
<linearGradient id="paint29_linear_20_650" x1="263.998" y1="169.004" x2="263.998" y2="194.035" gradientUnits="userSpaceOnUse">
<stop stop-color="#FDFA74"/>
<stop offset="1" stop-color="#46EAAA"/>
</linearGradient>
<linearGradient id="paint30_linear_20_650" x1="282.235" y1="169.004" x2="282.235" y2="194.035" gradientUnits="userSpaceOnUse">
<stop stop-color="#FDFA74"/>
<stop offset="1" stop-color="#46EAAA"/>
</linearGradient>
<linearGradient id="paint31_linear_20_650" x1="273.475" y1="313.836" x2="273.475" y2="319.052" gradientUnits="userSpaceOnUse">
<stop stop-color="#FDFA74"/>
<stop offset="1" stop-color="#46EAAA"/>
</linearGradient>
<linearGradient id="paint32_linear_20_650" x1="273.475" y1="334.62" x2="273.475" y2="339.837" gradientUnits="userSpaceOnUse">
<stop stop-color="#FDFA74"/>
<stop offset="1" stop-color="#46EAAA"/>
</linearGradient>
<linearGradient id="paint33_linear_20_650" x1="297.323" y1="222.55" x2="297.323" y2="246.52" gradientUnits="userSpaceOnUse">
<stop stop-color="#FDFA74"/>
<stop offset="1" stop-color="#46EAAA"/>
</linearGradient>
<linearGradient id="paint34_linear_20_650" x1="472.868" y1="238.354" x2="472.868" y2="244.924" gradientUnits="userSpaceOnUse">
<stop stop-color="#FDFA74"/>
<stop offset="1" stop-color="#46EAAA"/>
</linearGradient>
<linearGradient id="paint35_linear_20_650" x1="274.828" y1="391.916" x2="274.828" y2="410" gradientUnits="userSpaceOnUse">
<stop stop-color="#FDFA74"/>
<stop offset="1" stop-color="#46EAAA"/>
</linearGradient>
</defs>
</svg>
