<svg width="496" height="509" viewBox="0 0 496 509" fill="none" xmlns="http://www.w3.org/2000/svg">
<path opacity="0.41" d="M183.324 355.188C178.443 355.168 173.557 354.972 168.666 354.571C115.059 350.177 52.9582 324.58 26.2666 277.974C2.93142 237.23 -6.23058 184.481 4.39422 139.04C14.3818 96.3265 45.3466 61.7257 88.7062 48.5869C137.469 33.8113 191.364 51.7645 239.347 31.5853C309.186 2.21529 396.965 25.5397 445.91 81.4201C489.306 130.963 499.809 210.851 486.187 272.749C479.303 304.033 461.192 334.162 432.365 349.912C409.428 362.443 381.702 364.914 355.473 361.648C334.385 359.022 314.969 352.144 294.681 346.483C278.42 341.946 265.077 344.308 248.433 347.602C227.013 351.84 205.233 355.279 183.324 355.188Z" fill="#AFAFAF"/>
<path d="M195.29 325.296C191.341 325.279 187.387 325.121 183.429 324.797C140.052 321.241 89.8015 300.528 68.2039 262.817C49.3219 229.848 41.9071 187.164 50.5051 150.395C58.5871 115.831 83.6431 87.833 118.729 77.2022C158.187 65.2466 201.798 79.7738 240.624 63.4454C297.135 39.6806 368.164 58.5541 407.77 103.77C442.885 143.86 451.384 208.503 440.361 258.589C434.791 283.903 420.135 308.283 396.808 321.028C378.248 331.168 355.814 333.167 334.59 330.525C317.524 328.399 301.814 322.835 285.398 318.253C272.24 314.581 261.442 316.493 247.975 319.158C230.643 322.588 213.019 325.369 195.29 325.296Z" stroke="#F7F7F7" stroke-width="1.9456" stroke-miterlimit="10" stroke-dasharray="3.85 3.85"/>
<path opacity="0.87" d="M448.693 492.478C460.352 492.478 469.803 491.76 469.803 490.873C469.803 489.987 460.352 489.269 448.693 489.269C437.034 489.269 427.583 489.987 427.583 490.873C427.583 491.76 437.034 492.478 448.693 492.478Z" fill="#515159"/>
<path d="M451.372 430.175C451.372 430.175 433.298 417.895 444.908 400.047C456.518 382.198 453.615 375.995 449.552 370.969C459.42 382.198 457.257 394.991 451.372 403.107C445.488 411.221 444.555 422.265 451.372 430.175Z" fill="#AFAFAF"/>
<path d="M466.119 445.411H431.267L434.669 489.534H462.717L466.119 445.411Z" fill="#FEFEFE"/>
<path d="M469.803 443.154H427.583V448.329H469.803V443.154Z" fill="#8B8B8C"/>
<path d="M461.513 438.501H435.875C433.329 438.501 431.267 440.564 431.267 443.109V443.156H466.121V443.109C466.119 440.564 464.057 438.501 461.513 438.501Z" fill="#5A5A63"/>
<path d="M464.182 470.549L465.006 459.861H432.38L433.205 470.549H464.182Z" fill="url(#paint0_linear_20_3448)"/>
<path d="M466.119 443.154V443.108C466.119 440.562 464.056 438.5 461.511 438.5H448.814C451.359 438.5 453.422 440.562 453.422 443.108V443.154H457.105V448.329H453.196L450.02 489.533H462.717L465.895 448.329H469.803V443.154H466.119Z" fill="#AFAFAF"/>
<path d="M279.004 168.778C279.004 168.778 286.309 145.871 275.637 139.219C268.853 135.733 265.147 140.076 265.147 140.076C265.147 140.076 261.957 123.88 239.977 129.231C225.739 132.696 221.248 125.357 221.248 125.357C221.248 125.357 221.115 145.66 230.92 151.697C238.019 157.785 235.297 174.24 235.297 174.24L279.004 168.778Z" fill="#2F2F35"/>
<path opacity="0.87" d="M343.757 468.123C343.757 468.123 383.329 469.312 394.373 479.506C405.988 490.228 418.173 506.97 368.173 506.648C318.174 506.325 273.85 492.563 231.915 496.931C189.979 501.298 155.567 508.828 145.542 507.158C135.517 505.487 206.971 471.257 206.971 471.257L339.633 476.126L343.757 468.123Z" fill="#515159"/>
<path d="M306.744 379.112L256.858 374.1L206.971 379.112C206.971 379.112 204.009 402.683 194.375 415.258C256.858 437.698 256.858 437.698 256.858 437.698C256.858 437.698 256.858 437.698 319.341 415.258C309.708 402.683 306.744 379.112 306.744 379.112Z" fill="#124E31"/>
<path d="M254.887 436.99C256.855 437.697 256.858 437.698 256.858 437.698C256.858 437.698 256.86 437.697 258.826 436.991C270.322 410.544 267.571 380.873 266.89 375.108L256.859 374.1L244.02 375.39C243.763 381.728 243.335 410.712 254.887 436.99Z" fill="#124E31"/>
<path d="M206.688 381.035C206.691 381.036 259.182 404.188 309.878 394.126C307.6 385.896 306.746 379.112 306.746 379.112L256.859 374.1L216.785 378.126L206.688 381.035Z" fill="#895436"/>
<path d="M230.919 151.696C238.018 157.784 235.296 174.239 235.296 174.239L244.582 173.079C254.12 164.591 264.886 153.845 263.323 149.798C260.583 142.703 252.67 135.622 238.08 134.812C223.489 134.002 221.247 125.356 221.247 125.356C221.247 125.356 221.114 145.659 230.919 151.696Z" fill="#515159"/>
<path d="M255.047 209.178L213.806 224.213L206.972 379.113C206.972 379.113 221.55 385.947 256.858 385.947C256.858 224.947 256.858 211.584 256.858 211.584L255.047 209.178Z" fill="#F7F7F7"/>
<path d="M258.669 209.178L299.911 224.213L306.745 379.113C306.745 379.113 292.166 385.947 256.858 385.947C256.858 224.947 256.858 211.584 256.858 211.584L258.669 209.178Z" fill="#F7F7F7"/>
<path d="M213.806 224.213L213.615 224.282C201.568 228.584 191.942 237.843 187.174 249.713L142.905 356.86L180.549 361.346L212.416 283.244L213.806 224.213Z" fill="#FF7E6E"/>
<path d="M299.91 224.213L300.102 224.282C312.149 228.584 321.775 237.843 326.543 249.713L370.812 356.86L333.168 361.346L301.301 283.244L299.91 224.213Z" fill="#FF7E6E"/>
<path d="M343.733 291.317L326.543 249.712C321.775 237.842 312.149 228.584 300.102 224.28L299.91 224.212L301.301 283.241L310.329 305.367C322.38 295.274 334.471 291.996 343.733 291.317Z" fill="#E8E8E8"/>
<path d="M169.983 291.317L187.173 249.712C191.941 237.842 201.567 228.584 213.614 224.28L213.806 224.212L212.415 283.241L203.388 305.367C191.336 295.274 179.245 291.996 169.983 291.317Z" fill="#E8E8E8"/>
<path d="M302.605 285.283C302.605 285.283 301.488 283.718 299.911 280.786L301.302 283.241C301.302 283.241 285.611 370.333 243.665 385.6C247.698 385.816 252.082 385.945 256.859 385.945C292.167 385.945 306.745 379.111 306.745 379.111L302.605 285.283Z" fill="#D3D3D3"/>
<path opacity="0.52" d="M194.375 273.872C205.013 244.031 205.605 244.259 228.84 238.792C252.075 233.325 247.506 211.929 247.506 211.929L225.844 219.825L222.493 221.046L213.805 224.213L213.613 224.282C201.567 228.584 191.94 237.843 187.173 249.712L144.738 352.419C162.659 339.227 185.314 299.286 194.375 273.872Z" fill="#FFF6E7"/>
<path opacity="0.28" d="M319.341 273.872C308.703 244.031 308.111 244.259 284.876 238.792C261.641 233.325 266.21 211.929 266.21 211.929L287.872 219.825L291.222 221.046L299.909 224.213L300.101 224.282C312.148 228.584 321.774 237.843 326.542 249.712L368.976 352.419C351.057 339.227 328.402 299.286 319.341 273.872Z" fill="#4C2A29"/>
<path d="M256.97 228.288H256.747C250.651 228.288 245.708 223.347 245.708 217.25V190.894H268.008V217.25C268.009 223.347 263.066 228.288 256.97 228.288Z" fill="#FF7E6E"/>
<path d="M267.83 211.222C267.894 211.222 267.946 211.215 268.009 211.214V190.894H257.599L245.708 195.191C245.708 195.191 250.134 211.222 267.83 211.222Z" fill="#4C2A29"/>
<path d="M282.797 175.061C282.797 179.016 279.592 182.222 275.637 182.222C271.683 182.222 268.477 179.016 268.477 175.061C268.477 171.106 271.683 167.901 275.637 167.901C279.591 167.901 282.797 171.106 282.797 175.061Z" fill="#C64F4F"/>
<path d="M277.03 182.081C278.065 177.93 278.672 172.62 279.003 168.778C277.995 168.237 276.86 167.901 275.636 167.901C271.682 167.901 268.476 171.107 268.476 175.061C268.476 179.016 271.682 182.222 275.636 182.222C276.115 182.222 276.579 182.17 277.03 182.081Z" fill="#803D3D"/>
<path d="M230.919 175.061C230.919 179.016 234.125 182.222 238.079 182.222C242.035 182.222 245.24 179.016 245.24 175.061C245.24 171.106 242.035 167.901 238.079 167.901C234.125 167.901 230.919 171.106 230.919 175.061Z" fill="#C64F4F"/>
<path d="M236.686 182.081C235.65 177.93 235.044 172.62 234.713 168.778C235.721 168.237 236.856 167.901 238.08 167.901C242.035 167.901 245.24 171.107 245.24 175.061C245.24 179.016 242.034 182.222 238.08 182.222C237.602 182.222 237.137 182.17 236.686 182.081Z" fill="#803D3D"/>
<path d="M269.461 150.017H256.859H244.256L238.019 163.645L239.067 177.133C239.628 184.331 244.278 196.759 250.82 199.813C252.764 200.721 254.823 201.325 256.859 201.325C258.894 201.325 260.953 200.721 262.897 199.813C269.439 196.759 274.089 184.332 274.65 177.133L275.699 163.645L269.461 150.017Z" fill="#FF7E6E"/>
<path d="M263.322 167.125C263.322 167.125 267.551 168.311 272.335 167.125" stroke="#2F2F35" stroke-width="1.3362" stroke-miterlimit="10" stroke-linecap="round"/>
<path d="M261.957 159.375C261.957 159.375 268.133 158.348 271.846 160.487" stroke="#2F2F35" stroke-width="2.6723" stroke-miterlimit="10" stroke-linecap="round"/>
<path d="M250.393 167.125C250.393 167.125 246.165 168.311 241.379 167.125" stroke="#2F2F35" stroke-width="1.3362" stroke-miterlimit="10" stroke-linecap="round"/>
<path d="M251.759 159.375C251.759 159.375 245.583 158.348 241.87 160.487" stroke="#2F2F35" stroke-width="2.6723" stroke-miterlimit="10" stroke-linecap="round"/>
<path opacity="0.52" d="M246.815 178.878C245.992 165.25 244.256 150.017 244.256 150.017L238.018 163.645L238.352 167.927C238.259 167.923 238.173 167.899 238.08 167.899C234.126 167.899 230.92 171.106 230.92 175.06C230.92 179.015 234.126 182.22 238.08 182.22C238.707 182.22 239.304 182.115 239.883 181.963C241.569 188.929 245.586 197.37 250.821 199.813C252.765 200.721 254.824 201.325 256.859 201.325C256.859 201.325 247.638 192.508 246.815 178.878Z" fill="#FFF6E7"/>
<path d="M299.91 439.704L157.389 396.464C138.465 390.722 118.563 401.862 113.561 420.994L113.373 421.716C108.22 441.429 121.002 461.343 141.072 464.85C193.768 474.062 289.279 489.726 339.547 491.642L360.737 505.768C363.936 507.902 368.184 507.55 370.99 504.92L371.099 504.818C374.433 501.693 374.603 496.457 371.479 493.121L368.175 489.592C368.175 489.592 365.229 475.241 350.68 469.09C336.131 462.94 334.764 447.905 331.348 439.704C327.929 431.504 306.061 427.404 299.91 439.704Z" fill="#8C4242"/>
<path d="M113.561 420.994C118.563 401.861 138.466 390.722 157.389 396.464L205.721 411.128C198.441 420.21 188.838 438.647 188.548 472.864C170.902 469.996 154.576 467.211 141.071 464.85C121.001 461.343 108.219 441.428 113.372 421.716L113.561 420.994Z" fill="url(#paint1_linear_20_3448)"/>
<path opacity="0.67" d="M158.52 451.054C158.52 456.866 157.126 462.35 154.668 467.202C149.896 466.384 145.33 465.594 141.072 464.85C121.002 461.343 108.22 441.428 113.373 421.716L113.561 420.994C114.01 419.276 114.583 417.624 115.261 416.042C117.669 415.53 120.163 415.257 122.723 415.257C142.493 415.258 158.52 431.284 158.52 451.054Z" fill="#124E31"/>
<path d="M306.745 459.522C306.745 459.522 304.695 471.466 284.877 467.202" stroke="#7B3C38" stroke-width="1.139" stroke-miterlimit="10"/>
<path opacity="0.28" d="M319.341 454.055C319.341 454.055 288.976 452.688 224.739 441.23C172.696 431.946 157.429 405.308 153.508 395.528C154.803 395.765 156.097 396.071 157.387 396.462L299.909 439.703C306.06 427.402 327.928 431.502 331.344 439.703C334.761 447.904 336.127 462.938 350.676 469.089C365.225 475.239 368.171 489.591 368.171 489.591C368.171 489.591 353.212 480.023 343.755 477.974C334.297 475.924 319.341 454.055 319.341 454.055Z" fill="#4C2A29"/>
<path d="M325.917 490.873C325.917 490.873 352.087 515.914 374.399 505.609C378.112 503.896 379.275 499.155 376.851 495.863C358.056 470.338 334.36 442.53 325.327 432.08C323.067 429.464 319.487 428.406 316.167 429.371L290.464 436.838L325.917 490.873Z" fill="#2F2F35"/>
<path d="M290.464 436.839L265.846 429.369L284.494 486.754L325.917 490.873L290.464 436.839Z" fill="#A5A5A5"/>
<path d="M213.806 439.704L356.328 396.464C375.252 390.722 395.154 401.862 400.156 420.994L400.344 421.716C405.497 441.429 392.715 461.343 372.645 464.85C319.949 474.062 224.438 489.726 174.17 491.642L152.98 505.768C149.781 507.902 145.533 507.55 142.727 504.92L142.618 504.818C139.284 501.693 139.114 496.457 142.238 493.121L145.542 489.592C145.542 489.592 148.488 475.241 163.037 469.09C177.586 462.94 178.953 447.905 182.369 439.704C185.787 431.504 207.654 427.404 213.806 439.704Z" fill="#FF7E6E"/>
<path d="M400.155 420.994C395.154 401.861 375.25 390.722 356.328 396.464L307.995 411.128C315.276 420.21 324.878 438.647 325.167 472.864C342.813 469.996 359.139 467.211 372.644 464.85C392.714 461.343 405.496 441.428 400.344 421.716L400.155 420.994Z" fill="url(#paint2_linear_20_3448)"/>
<path opacity="0.67" d="M355.196 451.054C355.196 456.866 356.59 462.35 359.048 467.202C363.82 466.384 368.386 465.594 372.644 464.85C392.714 461.343 405.496 441.428 400.343 421.716L400.155 420.994C399.706 419.276 399.133 417.624 398.455 416.042C396.047 415.53 393.553 415.257 390.993 415.257C371.223 415.258 355.196 431.284 355.196 451.054Z" fill="#124E31"/>
<path opacity="0.28" d="M194.376 454.055C194.376 454.055 224.74 452.688 288.978 441.23C341.02 431.946 356.287 405.308 360.208 395.528C358.914 395.765 357.619 396.071 356.329 396.462L213.806 439.704C207.656 427.403 185.787 431.504 182.371 439.704C178.954 447.905 177.588 462.939 163.039 469.09C148.49 475.24 145.544 489.592 145.544 489.592C145.544 489.592 160.503 480.024 169.96 477.975C179.416 475.924 194.376 454.055 194.376 454.055Z" fill="#4C2A29"/>
<path opacity="0.57" d="M163.037 469.09L141.673 465.129C122.336 462.042 109.24 443.763 112.539 424.461L112.669 423.705C116.265 402.66 137.625 389.644 157.977 396.095L198.317 408.881" stroke="#F7F7F7" stroke-width="1.1139" stroke-miterlimit="10"/>
<path d="M249.531 178.655C248.763 178.655 248.312 179.546 248.783 180.152C250.923 182.898 253.755 184.577 256.869 184.577C259.983 184.577 262.815 182.898 264.954 180.152C265.426 179.546 264.975 178.655 264.207 178.655H249.531Z" fill="#F7F7F7"/>
<path d="M258.974 166.824V174.238C258.974 174.238 257.269 173.274 254.896 174.238" stroke="#2F2F35" stroke-width="0.8212" stroke-miterlimit="10" stroke-linecap="round"/>
<path d="M265.146 140.075H263.322V151.674H265.146V140.075Z" fill="#FF7E6E"/>
<path d="M370.813 356.859L370.888 357.067C375.16 368.895 370.043 382.06 358.905 387.899L282.797 427.794L282.422 426.822C275.716 409.5 282.73 389.88 298.897 380.734L333.17 361.344L370.813 356.859Z" fill="#FF7E6E"/>
<path opacity="0.28" d="M354.742 381.295C354.742 384.105 355.444 386.747 356.671 389.069L358.905 387.898C367.689 383.293 372.705 374.129 372.346 364.661C372.039 364.644 371.735 364.614 371.423 364.614C362.21 364.614 354.742 372.083 354.742 381.295Z" fill="#4C2A29"/>
<path d="M333.168 361.344L354.742 349.11" stroke="#4C2A29" stroke-width="1.3362" stroke-miterlimit="10" stroke-linecap="round"/>
<path d="M143.127 356.859L143.051 357.067C138.779 368.895 143.896 382.06 155.034 387.899L231.142 427.794L231.519 426.822C238.224 409.5 231.21 389.88 215.044 380.734L180.771 361.344L143.127 356.859Z" fill="#FF7E6E"/>
<path opacity="0.28" d="M159.197 381.295C159.197 384.105 158.495 386.747 157.269 389.069L155.034 387.898C146.25 383.293 141.236 374.129 141.593 364.661C141.9 364.644 142.204 364.614 142.516 364.614C151.728 364.614 159.197 372.083 159.197 381.295Z" fill="#4C2A29"/>
<path d="M180.771 361.344L159.197 349.11" stroke="#4C2A29" stroke-width="1.3362" stroke-miterlimit="10" stroke-linecap="round"/>
<path d="M222.697 423.366C222.697 423.366 226.538 402.29 214.029 395.528" stroke="#4C2A29" stroke-width="1.3362" stroke-miterlimit="10" stroke-linecap="round"/>
<path d="M291.02 423.366C291.02 423.366 287.179 402.29 299.688 395.528" stroke="#4C2A29" stroke-width="1.3362" stroke-miterlimit="10" stroke-linecap="round"/>
<path d="M187.799 490.873C187.799 490.873 161.629 515.914 139.317 505.609C135.605 503.896 134.441 499.155 136.865 495.863C155.66 470.338 179.355 442.53 188.389 432.08C190.649 429.464 194.229 428.406 197.549 429.371L223.252 436.838L187.799 490.873Z" fill="#2F2F35"/>
<path d="M223.254 436.839L247.871 429.369L229.223 486.754L187.8 490.873L223.254 436.839Z" fill="#ECECEC"/>
<path opacity="0.28" d="M213.015 452.442C220.317 451.663 229.801 450.522 241.534 448.866L247.87 429.37L223.253 436.839L213.015 452.442Z" fill="#4C2A29"/>
<path d="M195.643 473.446L181.361 495.211C180.472 496.566 178.883 497.291 177.277 497.073L177.182 497.059C174.088 496.639 172.514 493.115 174.265 490.53L188.871 468.967C189.806 467.587 191.494 466.929 193.115 467.309L193.199 467.328C195.919 467.967 197.174 471.112 195.643 473.446Z" fill="#FFF6E7"/>
<path d="M254.896 347.649H167.498L189.046 424.402H254.896H320.746L342.295 347.649H254.896Z" fill="#AFAFAF"/>
<path d="M320.747 424.402H189.047V435.581H320.747V424.402Z" fill="#8B8B8C"/>
<path d="M255.046 403.018C266.848 403.018 276.416 398.118 276.416 392.074C276.416 386.03 266.848 381.13 255.046 381.13C243.244 381.13 233.677 386.03 233.677 392.074C233.677 398.118 243.244 403.018 255.046 403.018Z" fill="#5A5A63"/>
<path d="M342.295 342.557H167.498V347.649H342.295V342.557Z" fill="#5A5A63"/>
<path d="M209.53 427.612H196.341V432.106H209.53V427.612Z" fill="#5A5A63"/>
<path d="M228.566 427.612H215.377V432.106H228.566V427.612Z" fill="#5A5A63"/>
<path d="M320.747 429.991H240.594" stroke="#0F1201" stroke-miterlimit="10"/>
<path opacity="0.54" d="M167.498 347.649L189.046 424.403H235.953C263.805 392.111 280.728 347.649 280.728 347.649L280.67 342.557H167.498V347.649Z" fill="#F7F7F7"/>
<path opacity="0.57" d="M167.498 347.649H342.295" stroke="#0F1201" stroke-miterlimit="10"/>
<path opacity="0.87" d="M76.6954 492.478C94.1997 492.478 108.39 491.76 108.39 490.874C108.39 489.988 94.1997 489.269 76.6954 489.269C59.191 489.269 45.001 489.988 45.001 490.874C45.001 491.76 59.191 492.478 76.6954 492.478Z" fill="#515159"/>
<path d="M81.3299 475.091L83.4071 472.828L82.3691 473.959L83.4167 472.836C83.1611 472.593 58.1483 447.234 88.3619 332.964L85.3907 332.178C54.5447 448.84 80.2223 474.073 81.3299 475.091Z" fill="#5A5A63"/>
<path d="M72.0118 334.931C83.455 345.33 81.4498 357.626 81.4498 357.626C81.4498 357.626 69.9898 352.738 67.3318 337.506C66.865 334.835 70.0054 333.107 72.0118 334.931Z" fill="#5A5A63"/>
<path d="M100.642 342.272C85.6062 345.881 81.4482 357.626 81.4482 357.626C81.4482 357.626 93.8454 358.856 103.507 346.781C105.201 344.665 103.279 341.639 100.642 342.272Z" fill="#5A5A63"/>
<path d="M64.1712 364.816C76.602 374.013 75.8424 386.447 75.8424 386.447C75.8424 386.447 63.9492 382.737 59.7732 367.848C59.0412 365.237 61.9908 363.203 64.1712 364.816Z" fill="#5A5A63"/>
<path d="M93.3964 369.242C78.7996 374.344 75.8428 386.446 75.8428 386.446C75.8428 386.446 88.3012 386.423 96.6988 373.44C98.1712 371.165 95.9548 368.348 93.3964 369.242Z" fill="#5A5A63"/>
<path d="M59.2019 391.023C72.2796 399.274 72.4416 411.731 72.4416 411.731C72.4416 411.731 60.3072 408.911 55.0404 394.372C54.1176 391.823 56.9099 389.576 59.2019 391.023Z" fill="#5A5A63"/>
<path d="M88.6738 393.275C74.4946 399.444 72.4414 411.731 72.4414 411.731C72.4414 411.731 84.8638 410.787 92.2786 397.217C93.5782 394.839 91.1602 392.193 88.6738 393.275Z" fill="#5A5A63"/>
<path d="M96.5255 312.034C96.7847 327.495 86.4514 334.454 86.4514 334.454C86.4514 334.454 82.1651 322.756 91.4435 310.386C93.0695 308.218 96.4799 309.323 96.5255 312.034Z" fill="#5A5A63"/>
<path d="M92.1057 424.427H58.8789V490.158H92.1057V424.427Z" fill="url(#paint3_linear_20_3448)"/>
<path opacity="0.67" d="M92.1064 424.427H78.832V490.158H92.1064V424.427Z" fill="#124E31"/>
<path d="M106.696 110.924L94.7404 113.897C93.0064 114.329 91.2496 113.272 90.8188 111.538L89.668 106.911L107.906 102.375L109.056 107.002C109.487 108.737 108.431 110.493 106.696 110.924Z" fill="#124E31"/>
<path d="M151.123 96.6665L47.8409 122.352C46.0493 122.798 44.2349 121.707 43.7885 119.914L26.7557 51.4253C26.3105 49.6337 27.4013 47.8193 29.1941 47.3729L132.476 21.6869C134.267 21.2417 136.082 22.3325 136.527 24.1253L153.56 92.6141C154.006 94.4069 152.914 96.2201 151.123 96.6665Z" fill="#124E31"/>
<path d="M148.061 84.8297L145.181 93.1049L53.5455 115.894L45.4083 110.36L28.5303 42.4997L131.184 16.9697L148.061 84.8297Z" fill="url(#paint4_linear_20_3448)"/>
<path d="M78.5342 30.0655L28.5244 42.501L45.3979 110.359L95.4077 97.9233L78.5342 30.0655Z" fill="#F7F7F7"/>
<path d="M75.4434 35.8715L34.3535 46.0889L34.9436 48.4621L76.0335 38.2447L75.4434 35.8715Z" fill="#AFAFAF"/>
<path d="M77.3408 43.4522L36.251 53.6738L36.8413 56.047L77.9312 45.8254L77.3408 43.4522Z" fill="#AFAFAF"/>
<path d="M79.2197 51.0575L38.1299 61.2749L38.72 63.6481L79.8098 53.4307L79.2197 51.0575Z" fill="#AFAFAF"/>
<path d="M81.1074 58.6493L40.0176 68.8667L40.6077 71.2399L81.6975 61.0225L81.1074 58.6493Z" fill="#AFAFAF"/>
<path d="M83.0059 66.23L41.916 76.4517L42.5064 78.8249L83.5962 68.6032L83.0059 66.23Z" fill="#AFAFAF"/>
<path d="M84.8828 73.8353L43.793 84.0527L44.3831 86.4259L85.4729 76.2085L84.8828 73.8353Z" fill="#AFAFAF"/>
<path d="M86.7715 81.4271L45.6816 91.6445L46.2718 94.0177L87.3616 83.8003L86.7715 81.4271Z" fill="#AFAFAF"/>
<path d="M88.6719 89.0074L47.582 99.229L48.1724 101.602L89.2622 91.3806L88.6719 89.0074Z" fill="#AFAFAF"/>
<path d="M131.179 16.9578L81.1689 29.3984L98.0495 97.2562L148.059 84.8156L131.179 16.9578Z" fill="#F7F7F7"/>
<path d="M127.711 22.8599L86.6211 33.0815L87.2115 35.4548L128.301 25.2331L127.711 22.8599Z" fill="#AFAFAF"/>
<path d="M129.593 30.4696L88.5029 40.687L89.0931 43.0602L130.183 32.8428L129.593 30.4696Z" fill="#AFAFAF"/>
<path d="M131.48 38.0633L90.3906 48.2808L90.9807 50.654L132.071 40.4366L131.48 38.0633Z" fill="#AFAFAF"/>
<path d="M133.377 45.6372L92.2871 55.8589L92.8775 58.2321L133.967 48.0104L133.377 45.6372Z" fill="#AFAFAF"/>
<path d="M135.257 53.2474L94.167 63.4648L94.7571 65.8381L135.847 55.6206L135.257 53.2474Z" fill="#AFAFAF"/>
<path d="M137.145 60.8407L96.0547 71.0581L96.6448 73.4313L137.735 63.2139L137.145 60.8407Z" fill="#AFAFAF"/>
<path d="M139.043 68.4146L97.9531 78.6362L98.5435 81.0094L139.633 70.7878L139.043 68.4146Z" fill="#AFAFAF"/>
<path d="M140.92 76.0253L99.8301 86.2427L100.42 88.6159L141.51 78.3985L140.92 76.0253Z" fill="#AFAFAF"/>
<path d="M103.564 106.958L95.6516 108.926C93.9176 109.357 92.1632 108.301 91.7312 106.568L91.0088 103.663L105.2 100.133L105.922 103.039C106.353 104.771 105.297 106.527 103.564 106.958Z" fill="url(#paint5_linear_20_3448)"/>
<path d="M279.188 9.3807C275.084 5.4783 269.898 2.8167 264.56 1.0383C264.524 1.0263 264.442 1.0035 264.32 0.9711C259.484 -0.3237 254.386 -0.3237 249.55 0.9711C249.429 1.0035 249.346 1.0263 249.31 1.0383C243.971 2.8167 238.786 5.4795 234.682 9.3807C222.466 20.9955 224.451 42.0771 236.348 53.2011C239.685 56.3211 241.15 60.3495 242.171 64.7907C242.48 66.1287 244.25 80.0787 243.632 80.0787C249.602 80.0787 256.934 80.0787 256.934 80.0787C256.934 80.0787 264.266 80.0787 270.236 80.0787C269.619 80.0787 271.389 66.1275 271.696 64.7907C272.718 60.3507 274.184 56.3223 277.521 53.2011C289.419 42.0783 291.402 20.9967 279.188 9.3807Z" fill="url(#paint6_linear_20_3448)"/>
<path opacity="0.52" d="M252.15 64.7909C251.129 60.3509 249.663 56.3225 246.327 53.2013C234.43 42.0773 232.445 20.9957 244.661 9.38094C248.765 5.47854 253.95 2.81694 259.289 1.03854C259.325 1.02654 259.407 1.00374 259.529 0.971341C260.321 0.758941 261.12 0.594541 261.924 0.451741C257.82 -0.276659 253.594 -0.112259 249.55 0.971341C249.429 1.00374 249.346 1.02654 249.31 1.03854C243.971 2.81694 238.785 5.47974 234.682 9.38094C222.466 20.9957 224.451 42.0773 236.348 53.2013C239.685 56.3213 241.15 60.3497 242.171 64.7909C242.48 66.1289 244.25 80.0789 243.632 80.0789C247.06 80.0789 250.93 80.0789 253.611 80.0789C254.229 80.0789 252.459 66.1277 252.15 64.7909Z" fill="#FFF6E7"/>
<path d="M256.935 80.0787V47.5443L262.661 44.2431C264.553 43.1523 264.175 40.3167 262.063 39.7599L251.643 37.0095C249.865 36.5403 249.664 34.0995 251.34 33.3447L256.933 30.8283V19.7847" stroke="#FEFEFE" stroke-width="2.2387" stroke-miterlimit="10" stroke-linecap="round"/>
<path d="M272.884 84.556C272.884 85.5448 272.082 86.3464 271.093 86.3464H241.842C240.853 86.3464 240.052 85.5448 240.052 84.556C240.052 83.5672 240.853 82.7656 241.842 82.7656H271.093C272.081 82.7656 272.884 83.5672 272.884 84.556Z" fill="#2F2F35"/>
<path d="M272.884 89.9281C272.884 90.9169 272.082 91.7197 271.093 91.7197H241.842C240.853 91.7197 240.052 90.9181 240.052 89.9281C240.052 88.9393 240.853 88.1377 241.842 88.1377H271.093C272.081 88.1377 272.884 88.9393 272.884 89.9281Z" fill="#2F2F35"/>
<path d="M272.884 95.3009C272.884 96.2897 272.082 97.0913 271.093 97.0913H241.842C240.853 97.0913 240.052 96.2897 240.052 95.3009C240.052 94.3121 240.853 93.5093 241.842 93.5093H271.093C272.081 93.5105 272.884 94.3121 272.884 95.3009Z" fill="#2F2F35"/>
<path d="M256.467 109.627C262.236 109.627 266.914 104.95 266.914 99.1802H246.021C246.021 104.951 250.697 109.627 256.467 109.627Z" fill="#2F2F35"/>
<path d="M380.227 116.496V108.086H376.51C375.807 104.091 374.174 100.426 371.841 97.3049L374.789 94.3565L368.842 88.4093L365.783 91.4681C362.653 89.3297 359.013 87.8969 355.093 87.3317V82.9385H346.683V87.4961C342.923 88.2053 339.467 89.7437 336.487 91.9073L333.509 88.9301L327.562 94.8773L330.578 97.8929C328.374 101.026 326.875 104.676 326.266 108.627H322.091V117.036H326.359C327.047 120.891 328.6 124.436 330.813 127.481L327.527 130.767L333.474 136.714L336.802 133.388C339.853 135.531 343.394 137.008 347.225 137.646V142.186H355.635V137.646C359.453 137.012 362.983 135.543 366.027 133.412L368.809 136.193L374.756 130.246L372.022 127.512C374.35 124.319 375.944 120.57 376.583 116.496H380.227ZM351.43 126.836C343.529 126.836 337.124 120.43 337.124 112.529C337.124 104.627 343.529 98.2229 351.43 98.2229C359.332 98.2229 365.737 104.628 365.737 112.529C365.737 120.431 359.332 126.836 351.43 126.836Z" fill="#F7F7F7"/>
<path d="M413.764 148.394V143.543H411.62C411.214 141.238 410.272 139.124 408.927 137.323L410.628 135.622L407.198 132.191L405.434 133.955C403.628 132.721 401.528 131.894 399.266 131.568V129.034H394.414V131.663C392.246 132.072 390.251 132.96 388.532 134.208L386.814 132.491L383.384 135.922L385.124 137.662C383.853 139.469 382.988 141.575 382.636 143.854H380.228V148.705H382.69C383.087 150.929 383.984 152.974 385.259 154.73L383.363 156.626L386.794 160.057L388.713 158.138C390.473 159.376 392.516 160.228 394.725 160.595V163.213H399.576V160.595C401.78 160.229 403.816 159.382 405.572 158.152L407.176 159.756L410.607 156.325L409.03 154.748C410.373 152.906 411.293 150.744 411.66 148.393L413.764 148.394ZM397.151 154.358C392.594 154.358 388.898 150.664 388.898 146.105C388.898 141.547 392.592 137.851 397.151 137.851C401.71 137.851 405.405 141.546 405.405 146.105C405.405 150.664 401.71 154.358 397.151 154.358Z" fill="#9E9E9E"/>
<path d="M490.204 85.559V68.2874H482.571C481.126 60.083 477.773 52.5578 472.983 46.1462L479.039 40.0898L466.827 27.8774L460.546 34.1582C454.116 29.7674 446.643 26.825 438.591 25.6622V16.6406H421.319V26.0006C413.6 27.4562 406.5 30.617 400.379 35.0606L394.266 28.9478L382.054 41.1602L388.247 47.3534C383.722 53.7878 380.643 61.2842 379.394 69.3974H370.818V86.669H379.583C380.998 94.5842 384.188 101.863 388.731 108.118L381.982 114.867L394.194 127.079L401.027 120.247C407.292 124.65 414.563 127.684 422.432 128.993V138.316H439.703V128.993C447.544 127.689 454.793 124.673 461.044 120.295L466.757 126.009L478.97 113.796L473.357 108.184C478.138 101.626 481.412 93.929 482.723 85.5602L490.204 85.559ZM431.067 106.794C414.84 106.794 401.686 93.6398 401.686 77.4146C401.686 61.1882 414.84 48.0338 431.067 48.0338C447.293 48.0338 460.448 61.1882 460.448 77.4146C460.448 93.6398 447.293 106.794 431.067 106.794Z" fill="#8B8B8C"/>
<path d="M430.511 94.7201C440.033 94.7201 447.751 87.0013 447.751 77.4797C447.751 67.958 440.033 60.2393 430.511 60.2393C420.989 60.2393 413.271 67.958 413.271 77.4797C413.271 87.0013 420.989 94.7201 430.511 94.7201Z" fill="#F7F7F7"/>
<path d="M94.6863 165.674C57.6423 167.92 28.8472 190.12 30.3724 215.258C31.8976 240.395 63.1635 258.952 100.208 256.704C100.235 256.703 100.263 256.701 100.29 256.7C103.936 256.475 106.486 252.953 105.585 249.414C105.147 247.692 104.9 245.889 104.871 244.026C104.682 232.044 113.951 221.75 125.886 220.671C134.548 219.888 142.461 223.96 147.028 230.586C149.282 233.856 154.072 234.088 156.509 230.951C162.078 223.782 165.038 215.621 164.522 207.122C162.998 181.983 131.732 163.426 94.6863 165.674Z" fill="#5A5A63"/>
<path d="M94.4403 161.606C57.3963 163.852 28.6011 186.052 30.1263 211.19C31.6515 236.327 62.9175 254.884 99.9627 252.637C99.9903 252.635 100.018 252.633 100.045 252.632C103.691 252.407 106.241 248.885 105.34 245.347C104.902 243.625 104.655 241.821 104.626 239.959C104.437 227.977 113.706 217.682 125.641 216.603C134.303 215.821 142.216 219.892 146.783 226.519C149.037 229.789 153.827 230.02 156.264 226.883C161.833 219.715 164.793 211.553 164.277 203.054C162.75 177.915 131.484 159.358 94.4403 161.606Z" fill="#8B8B8C"/>
<path d="M81.3563 232.867C81.6275 237.332 78.2267 241.172 73.7615 241.443C69.2963 241.714 65.4563 238.314 65.1851 233.848C64.9139 229.383 68.3147 225.543 72.7799 225.272C77.2451 225.001 81.0851 228.402 81.3563 232.867Z" fill="url(#paint7_linear_20_3448)"/>
<path d="M59.2889 217.535C59.5601 222 56.1593 225.84 51.6941 226.112C47.2289 226.383 43.3889 222.982 43.1177 218.517C42.8465 214.052 46.2473 210.212 50.7125 209.94C55.1789 209.669 59.0177 213.07 59.2889 217.535Z" fill="url(#paint8_linear_20_3448)"/>
<path d="M65.7772 190.72C66.0484 195.186 62.6476 199.026 58.1824 199.297C53.7172 199.568 49.8772 196.167 49.606 191.702C49.3348 187.237 52.7356 183.397 57.2008 183.126C61.6672 182.854 65.5072 186.255 65.7772 190.72Z" fill="url(#paint9_linear_20_3448)"/>
<path d="M93.1258 176.228C93.397 180.693 89.9962 184.533 85.531 184.804C81.0658 185.075 77.2258 181.674 76.9546 177.209C76.6834 172.744 80.0842 168.904 84.5494 168.633C89.0146 168.362 92.8546 171.762 93.1258 176.228Z" fill="url(#paint10_linear_20_3448)"/>
<path d="M123.931 176.624C124.203 181.089 120.802 184.929 116.337 185.2C111.871 185.471 108.031 182.07 107.76 177.605C107.489 173.14 110.89 169.3 115.355 169.029C119.82 168.758 123.66 172.158 123.931 176.624Z" fill="url(#paint11_linear_20_3448)"/>
<path d="M149.931 191.277C150.203 195.742 146.802 199.582 142.337 199.853C137.871 200.125 134.031 196.724 133.76 192.259C133.489 187.793 136.89 183.953 141.355 183.682C145.821 183.411 149.661 186.812 149.931 191.277Z" fill="url(#paint12_linear_20_3448)"/>
<path opacity="0.68" d="M130.493 166.403L122.867 182.359C121.861 182.309 120.889 182.881 120.488 183.867L120.467 183.921C119.958 185.169 120.558 186.593 121.807 187.102L122.522 187.394C122.382 187.347 121.655 187.262 120.121 189.495C120.12 189.496 120.12 189.496 120.12 189.497C120.027 189.632 119.931 189.777 119.833 189.929C119.823 189.945 119.814 189.959 119.803 189.975C119.712 190.118 119.617 190.269 119.52 190.427C119.501 190.46 119.481 190.491 119.461 190.523C119.37 190.673 119.277 190.831 119.183 190.995C119.155 191.043 119.126 191.092 119.097 191.143C119.007 191.3 118.916 191.463 118.823 191.633C118.785 191.701 118.748 191.77 118.71 191.84C118.621 192.004 118.53 192.175 118.437 192.351C118.392 192.437 118.346 192.526 118.299 192.616C118.211 192.788 118.121 192.963 118.028 193.147C117.974 193.255 117.919 193.366 117.863 193.479C117.774 193.658 117.685 193.839 117.595 194.027C117.533 194.157 117.469 194.291 117.404 194.427C117.315 194.615 117.225 194.805 117.134 195.003C117.065 195.152 116.994 195.309 116.923 195.464C116.833 195.662 116.743 195.86 116.651 196.067C116.573 196.243 116.492 196.427 116.412 196.611C116.323 196.814 116.234 197.015 116.143 197.227C116.055 197.431 115.965 197.644 115.875 197.857C115.787 198.068 115.698 198.275 115.607 198.495C115.511 198.725 115.412 198.968 115.314 199.207C115.225 199.424 115.137 199.636 115.046 199.862C114.941 200.125 114.83 200.403 114.722 200.678C114.635 200.9 114.548 201.116 114.458 201.346C114.337 201.656 114.212 201.982 114.087 202.306C114.007 202.516 113.928 202.718 113.846 202.934C113.699 203.323 113.547 203.731 113.395 204.137C113.331 204.309 113.269 204.472 113.204 204.647C112.986 205.24 112.763 205.851 112.535 206.486C111.924 208.186 111.21 210.188 110.423 212.408C110.331 212.666 110.243 212.917 110.148 213.181C110.029 213.517 109.904 213.868 109.782 214.215C109.68 214.503 109.58 214.785 109.476 215.08C109.315 215.535 109.149 216.005 108.984 216.476C108.909 216.687 108.837 216.892 108.762 217.106C108.597 217.571 108.429 218.049 108.261 218.528C108.176 218.771 108.091 219.01 108.005 219.257C107.846 219.706 107.685 220.167 107.523 220.627C107.424 220.911 107.325 221.189 107.225 221.477C107.039 222.009 106.849 222.55 106.658 223.094C106.586 223.298 106.517 223.498 106.445 223.705C106.251 224.259 106.055 224.822 105.857 225.387C105.773 225.628 105.689 225.867 105.605 226.109C105.421 226.635 105.235 227.169 105.049 227.703C104.954 227.975 104.861 228.244 104.765 228.519C104.567 229.085 104.367 229.659 104.168 230.234C104.082 230.481 103.997 230.726 103.911 230.974C103.715 231.539 103.517 232.111 103.319 232.683C103.219 232.969 103.121 233.252 103.022 233.539C102.845 234.052 102.666 234.568 102.487 235.085C102.36 235.451 102.234 235.817 102.107 236.186C101.953 236.63 101.798 237.077 101.645 237.524C101.498 237.949 101.352 238.372 101.204 238.798C101.04 239.276 100.874 239.755 100.71 240.233C100.623 240.484 100.537 240.733 100.451 240.985C99.1054 244.893 97.7494 248.859 96.415 252.788C97.591 252.758 98.7742 252.709 99.9634 252.637C99.991 252.635 100.019 252.633 100.046 252.632C103.692 252.407 106.242 248.885 105.341 245.347C104.903 243.625 104.655 241.821 104.627 239.959C104.462 229.472 111.54 220.279 121.31 217.423C122.39 215.085 123.355 212.987 124.163 211.217C132.757 192.397 130.621 190.709 130.351 190.579L131.066 190.87C132.314 191.378 133.739 190.778 134.247 189.53L134.269 189.476C134.744 188.308 134.243 186.997 133.154 186.415L138.869 169.987C136.226 168.65 133.429 167.451 130.493 166.403Z" fill="#2F2F35"/>
<path opacity="0.42" d="M64.3759 189.481C64.4887 191.348 63.0667 192.955 61.1995 193.067C59.3323 193.18 57.7255 191.758 57.6127 189.891C57.4999 188.024 58.9219 186.417 60.7891 186.304C62.6563 186.191 64.2619 187.613 64.3759 189.481Z" fill="#F7F7F7"/>
<path opacity="0.42" d="M91.7412 175.278C91.854 177.146 90.432 178.753 88.5648 178.865C86.6976 178.978 85.0908 177.556 84.978 175.689C84.8652 173.822 86.2872 172.215 88.1544 172.102C90.0216 171.988 91.6272 173.41 91.7412 175.278Z" fill="#F7F7F7"/>
<path opacity="0.42" d="M120.718 174.554C120.831 176.421 119.409 178.028 117.541 178.141C115.674 178.253 114.067 176.831 113.955 174.964C113.842 173.097 115.264 171.49 117.131 171.377C118.998 171.265 120.604 172.687 120.718 174.554Z" fill="#F7F7F7"/>
<path opacity="0.42" d="M55.873 215.145C55.9858 217.012 54.5638 218.619 52.6966 218.731C50.8294 218.844 49.2226 217.422 49.1098 215.555C48.997 213.688 50.419 212.081 52.2862 211.968C54.1534 211.855 55.759 213.277 55.873 215.145Z" fill="#F7F7F7"/>
<path opacity="0.42" d="M79.8867 230.516C79.9995 232.383 78.5775 233.99 76.7103 234.102C74.8431 234.215 73.2363 232.793 73.1235 230.926C73.0107 229.059 74.4327 227.452 76.2999 227.339C78.1671 227.226 79.7727 228.648 79.8867 230.516Z" fill="#F7F7F7"/>
<path d="M160.112 161.584C160.112 161.584 171.164 155.543 171.872 146.207C171.827 140.69 169.431 136.162 169.431 136.162L167.918 141.848C167.918 141.848 167.086 132.916 160.708 128.601C154.33 124.286 155.9 125.498 155.9 125.498C155.9 125.498 161.255 132.605 155.311 144.392C149.366 156.178 156.868 160.264 156.868 160.264L160.112 161.584Z" fill="url(#paint13_linear_20_3448)"/>
<path d="M159.428 157.757C159.428 157.757 157.429 147.507 161.998 141.999C156.059 149.528 154.832 155.577 156.324 160.465C159.428 157.757 159.428 157.757 159.428 157.757Z" fill="#124E31"/>
<path d="M154.09 159.783C155.063 157.812 157.392 156.928 159.429 157.757L159.465 157.772L159.501 157.786C161.536 158.615 162.586 160.875 161.906 162.965L154.638 185.291L149.166 183.063L143.694 180.834L154.09 159.783Z" fill="#F7F7F7"/>
<path d="M142.848 185.825L152.106 189.594C153.354 190.103 154.778 189.503 155.287 188.254L155.309 188.2C155.818 186.951 155.218 185.527 153.968 185.019L144.71 181.249C143.462 180.741 142.038 181.341 141.529 182.59L141.508 182.644C141 183.892 141.6 185.316 142.848 185.825Z" fill="#CCCCCC"/>
<path d="M143.591 186.127L147.478 187.708L151.364 189.291C151.364 189.291 154.314 189.988 145.202 209.941C138.431 224.77 121.013 261.963 110.976 281.835C110.038 283.694 107.222 282.548 107.849 280.562C114.547 259.33 128.063 220.549 133.576 205.207C140.993 184.565 143.591 186.127 143.591 186.127Z" fill="#2F2F35"/>
<path d="M122.861 257.543C118.523 266.589 114.335 275.184 110.975 281.836C110.037 283.695 107.221 282.549 107.848 280.563C110.091 273.455 113.098 264.379 116.311 254.875L122.861 257.543Z" fill="#F7F7F7"/>
<path opacity="0.75" d="M121.49 239.707C135.77 222.033 141.139 188.364 141.163 188.218C139.578 190.527 137.132 195.312 133.575 205.209C130.881 212.705 126.277 225.799 121.49 239.707Z" fill="#F7F7F7"/>
<path d="M397.961 198.257L400.491 203.384L406.148 204.206L402.055 208.196L403.02 213.831L397.961 211.171L392.901 213.831L393.868 208.196L389.775 204.206L395.432 203.384L397.961 198.257Z" fill="#9E9E9E"/>
<path d="M470.798 191.096L474.331 198.254L482.23 199.402L476.515 204.974L477.864 212.841L470.798 209.127L463.734 212.841L465.082 204.974L459.367 199.402L467.266 198.254L470.798 191.096Z" fill="#F7F7F7"/>
<path d="M448.693 298.367L450.664 302.362L455.074 303.003L451.883 306.113L452.637 310.504L448.693 308.43L444.749 310.504L445.502 306.113L442.311 303.003L446.721 302.362L448.693 298.367Z" fill="#9E9E9E"/>
<path d="M378.343 271.301L381.875 278.459L389.774 279.606L384.058 285.178L385.408 293.045L378.343 289.331L371.277 293.045L372.627 285.178L366.91 279.606L374.81 278.459L378.343 271.301Z" fill="#F7F7F7"/>
<path d="M446.081 288.217C466.276 280.119 476.083 257.183 467.985 236.988C459.887 216.793 436.951 206.986 416.756 215.084C396.561 223.182 386.754 246.118 394.852 266.313C402.95 286.508 425.886 296.315 446.081 288.217Z" fill="url(#paint14_linear_20_3448)"/>
<g opacity="0.67">
<path d="M420.806 289.588C434.722 293.471 448.972 289.369 458.693 280.042C452.11 281.806 444.985 281.893 437.944 279.928C416.987 274.081 404.739 252.352 410.587 231.395C412.551 224.355 416.314 218.303 421.232 213.585C408.22 217.072 397.331 227.14 393.448 241.057C387.602 262.012 399.85 283.741 420.806 289.588Z" fill="#124E31"/>
</g>
<path opacity="0.52" d="M441.982 213.699C440.02 213.152 438.05 212.763 436.088 212.524C435.06 216.208 434.5 220.086 434.5 224.097C434.5 244.604 448.857 261.746 468.064 266.052C468.549 264.813 468.976 263.54 469.341 262.232C475.186 241.275 462.938 219.546 441.982 213.699Z" fill="#FFF6E7"/>
<path d="M392.135 248.402C376.852 242.447 367.346 237.061 368.145 234.199C369.473 229.437 398.811 233.463 433.672 243.19C468.533 252.917 495.716 264.663 494.387 269.425C493.592 272.278 482.739 271.976 466.666 269.182" stroke="#F7F7F7" stroke-width="2" stroke-miterlimit="10"/>
<defs>
<linearGradient id="paint0_linear_20_3448" x1="448.693" y1="459.861" x2="448.693" y2="470.549" gradientUnits="userSpaceOnUse">
<stop stop-color="#FDFA74"/>
<stop offset="1" stop-color="#46EAAA"/>
</linearGradient>
<linearGradient id="paint1_linear_20_3448" x1="158.974" y1="394.952" x2="158.974" y2="472.864" gradientUnits="userSpaceOnUse">
<stop stop-color="#FDFA74"/>
<stop offset="1" stop-color="#46EAAA"/>
</linearGradient>
<linearGradient id="paint2_linear_20_3448" x1="354.741" y1="394.952" x2="354.741" y2="472.864" gradientUnits="userSpaceOnUse">
<stop stop-color="#FDFA74"/>
<stop offset="1" stop-color="#46EAAA"/>
</linearGradient>
<linearGradient id="paint3_linear_20_3448" x1="75.4923" y1="424.427" x2="75.4923" y2="490.158" gradientUnits="userSpaceOnUse">
<stop stop-color="#FDFA74"/>
<stop offset="1" stop-color="#46EAAA"/>
</linearGradient>
<linearGradient id="paint4_linear_20_3448" x1="88.2957" y1="16.9697" x2="88.2957" y2="115.894" gradientUnits="userSpaceOnUse">
<stop stop-color="#FDFA74"/>
<stop offset="1" stop-color="#46EAAA"/>
</linearGradient>
<linearGradient id="paint5_linear_20_3448" x1="98.5137" y1="100.133" x2="98.5137" y2="109.022" gradientUnits="userSpaceOnUse">
<stop stop-color="#FDFA74"/>
<stop offset="1" stop-color="#46EAAA"/>
</linearGradient>
<linearGradient id="paint6_linear_20_3448" x1="256.934" y1="0" x2="256.934" y2="80.0787" gradientUnits="userSpaceOnUse">
<stop stop-color="#FDFA74"/>
<stop offset="1" stop-color="#46EAAA"/>
</linearGradient>
<linearGradient id="paint7_linear_20_3448" x1="73.2707" y1="225.257" x2="73.2707" y2="241.458" gradientUnits="userSpaceOnUse">
<stop stop-color="#FDFA74"/>
<stop offset="1" stop-color="#46EAAA"/>
</linearGradient>
<linearGradient id="paint8_linear_20_3448" x1="51.2033" y1="209.925" x2="51.2033" y2="226.127" gradientUnits="userSpaceOnUse">
<stop stop-color="#FDFA74"/>
<stop offset="1" stop-color="#46EAAA"/>
</linearGradient>
<linearGradient id="paint9_linear_20_3448" x1="57.6916" y1="183.11" x2="57.6916" y2="199.312" gradientUnits="userSpaceOnUse">
<stop stop-color="#FDFA74"/>
<stop offset="1" stop-color="#46EAAA"/>
</linearGradient>
<linearGradient id="paint10_linear_20_3448" x1="85.0402" y1="168.618" x2="85.0402" y2="184.819" gradientUnits="userSpaceOnUse">
<stop stop-color="#FDFA74"/>
<stop offset="1" stop-color="#46EAAA"/>
</linearGradient>
<linearGradient id="paint11_linear_20_3448" x1="115.846" y1="169.014" x2="115.846" y2="185.215" gradientUnits="userSpaceOnUse">
<stop stop-color="#FDFA74"/>
<stop offset="1" stop-color="#46EAAA"/>
</linearGradient>
<linearGradient id="paint12_linear_20_3448" x1="141.846" y1="183.667" x2="141.846" y2="199.869" gradientUnits="userSpaceOnUse">
<stop stop-color="#FDFA74"/>
<stop offset="1" stop-color="#46EAAA"/>
</linearGradient>
<linearGradient id="paint13_linear_20_3448" x1="162.446" y1="125.341" x2="162.446" y2="161.584" gradientUnits="userSpaceOnUse">
<stop stop-color="#FDFA74"/>
<stop offset="1" stop-color="#46EAAA"/>
</linearGradient>
<linearGradient id="paint14_linear_20_3448" x1="416.756" y1="215.084" x2="446.081" y2="288.217" gradientUnits="userSpaceOnUse">
<stop stop-color="#FDFA74"/>
<stop offset="1" stop-color="#46EAAA"/>
</linearGradient>
</defs>
</svg>
